<svg viewBox="0 0 43.196118 52.238897" xmlns="http://www.w3.org/2000/svg">
  <path d="M 0.45466447,0.0906495 10.994072,51.583282 M 42.741451,0.13772802 32.201989,51.630368 M 11.19319,51.600377 32.049347,51.485209 m 9.280542,40.512062 c 0.4284945,-0.237087 0.856984,-0.474163 1.163056,-0.644624 0.306074,-0.170461 0.489699,-0.274274 0.630488,-0.371469 0.14079,-0.09722 0.238736,-0.187781 0.348917,-0.262492 0.110181,-0.07477 0.232611,-0.133578 0.330559,-0.185338 0.09795,-0.05172 0.171385,-0.0964 0.379511,-0.160725 0.208126,-0.06437 0.550923,-0.148406 0.728422,-0.198027 0.1775,-0.0496 0.18976,-0.06486 0.244858,-0.08677 0.0551,-0.0218 0.153039,-0.05025 0.232617,-0.06372 0.07958,-0.01335 0.140791,-0.01173 0.275455,-0.03152 0.134665,-0.01968 0.342796,-0.06078 0.508073,-0.07965 0.165277,-0.01887 0.287703,-0.01561 0.520312,-0.0094 0.232609,0.0062 0.575404,0.01531 0.948804,0.02525 0.373401,0.0099 0.777406,0.02069 1.034498,0.03532 0.257093,0.01463 0.367279,0.03304 0.501951,0.04442 0.134671,0.01138 0.293824,0.01561 0.557044,0.06146 0.263219,0.04585 0.630492,0.133259 0.850861,0.177951 0.220368,0.04471 0.293822,0.04667 0.391757,0.07254 0.09793,0.02587 0.220371,0.07577 0.361162,0.118367 0.14079,0.0426 0.299947,0.07789 0.538682,0.154103 0.238734,0.07626 0.557035,0.193419 0.73455,0.252498 0.177516,0.05905 0.214249,0.06002 0.238716,0.06847 0.02446,0.0084 0.03672,0.02435 0.0551,0.03263 0.01837,0.0083 0.04286,0.0089 0.07959,0.02538 0.03672,0.01656 0.0857,0.04881 0.122424,0.06537 0.03672,0.01645 0.06122,0.0171 0.09182,0.0335 0.0306,0.01629 0.06733,0.04832 0.09794,0.06472 0.03061,0.0164 0.0551,0.01705 0.08569,0.02555 0.0306,0.0086 0.06733,0.02506 0.153037,0.06619 0.0857,0.04113 0.220373,0.106828 0.312194,0.155857 0.09182,0.04897 0.140789,0.08133 0.214241,0.106665 0.07345,0.02522 0.171398,0.04341 0.257078,0.07675 0.08573,0.03334 0.159172,0.08193 0.318327,0.132722 0.159163,0.05088 0.404006,0.103923 0.544777,0.146496 0.140779,0.04259 0.177529,0.07463 0.312201,0.117063 0.134663,0.04243 0.367283,0.09515 0.520303,0.145845 0.153021,0.0506 0.226504,0.0992 0.410141,0.127395 0.183637,0.02815 0.477463,0.03597 0.691707,0.04946 0.214236,0.01349 0.348917,0.03255 0.49583,0.04425 0.146913,0.0117 0.306067,0.01594 0.495829,0.03646 0.189754,0.02052 0.410123,0.05744 0.691699,0.08831 0.281585,0.03076 0.624376,0.05535 0.973293,0.07243 0.348916,0.01708 0.703949,0.02652 0.924336,0.01681 0.220387,-0.0096 0.30605,-0.03839 0.477437,-0.08826 0.171396,-0.04976 0.428498,-0.120595 0.624376,-0.169738 0.195887,-0.04911 0.330559,-0.07658 0.410132,-0.09773 0.07959,-0.02115 0.104073,-0.03608 0.134654,-0.05074 0.03063,-0.01466 0.06731,-0.02927 0.116323,-0.04355 0.04896,-0.01428 0.110163,-0.02813 0.171404,-0.05766 0.06125,-0.02943 0.122405,-0.07433 0.201986,-0.10338 0.07959,-0.02894 0.177521,-0.04181 0.27546,-0.06247 0.09794,-0.02066 0.195878,-0.04911 0.3183,-0.06912 0.122422,-0.02001 0.269344,-0.03168 0.348899,-0.04504 0.07959,-0.01335 0.09184,-0.02861 0.134707,-0.04306 0.04282,-0.01444 0.116332,-0.02796 0.153055,-0.04246 0.03677,-0.01449 0.03677,-0.03008 0.04897,-0.03755 0.0122,-0.0075 0.03668,-0.0068 0.0673,-0.02159 0.03063,-0.01477 0.06731,-0.04474 0.110163,-0.06697 0.04282,-0.02213 0.09184,-0.03641 0.153047,-0.07351 0.06116,-0.03722 0.134663,-0.09738 0.183628,-0.127123 0.04897,-0.02975 0.07345,-0.0291 0.140788,-0.05837 0.06731,-0.02927 0.177521,-0.08845 0.3428,-0.169483 0.165279,-0.08098 0.38564,-0.183861 0.495821,-0.243021 0.11018,-0.05918 0.11018,-0.07477 0.134654,-0.0897 0.02448,-0.01493 0.07345,-0.02921 0.09796,-0.04404 0.02448,-0.01482 0.02448,-0.03041 0.04282,-0.0455 0.01834,-0.01499 0.05502,-0.02959 0.08564,-0.05204 0.03063,-0.02245 0.05511,-0.05286 0.07959,-0.06779 0.02448,-0.01482 0.04896,-0.01417 0.0673,-0.02927 0.01834,-0.01499 0.03063,-0.04572 0.06739,-0.06032 0.03677,-0.01461 0.09793,-0.01298 0.159145,-0.01135 M 11.337342,50.826372 C 11.279684,50.586347 9.270587,40.731177 9.2780703,40.725078 c 0.00467,-0.0038 0.4040235,-0.2277 0.8874437,-0.497538 0.48342,-0.269835 1.00137,-0.580625 1.151,-0.690645 0.387618,-0.285001 0.641471,-0.401566 1.246502,-0.572375 0.292775,-0.08265 0.560569,-0.164838 0.595099,-0.182634 0.03453,-0.01781 0.288797,-0.06523 0.565037,-0.105408 0.4276,-0.0622 0.680295,-0.06903 1.700069,-0.04601 0.658797,0.01487 1.402762,0.04697 1.653255,0.07131 1.259078,0.12238 3.09956,0.633264 4.243279,1.177861 0.579393,0.275884 1.023091,0.449974 1.527691,0.599408 0.696807,0.206354 1.269085,0.386837 1.313363,0.414203 0.02527,0.01561 0.493466,0.06435 1.040463,0.10831 0.546997,0.04396 1.135798,0.0992 1.308449,0.122745 0.426429,0.05816 1.44702,0.126913 1.891441,0.127418 0.288903,2.65e-4 0.499893,-0.0344 1.025434,-0.168762 0.766107,-0.195871 1.168025,-0.321471 1.29739,-0.405437 0.05038,-0.0327 0.34231,-0.105547 0.648745,-0.161888 0.405011,-0.07447 0.637162,-0.14189 0.850138,-0.246909 0.86527,-0.426664 1.654635,-0.853937 1.811028,-0.980284 0.09737,-0.07866 0.186476,-0.133572 0.198022,-0.122028 0.02021,0.02021 -2.34129,11.620518 -2.37109,11.647315 -0.01844,0.01659 -15.808641,0.108257 -18.503107,0.107426 l -1.997758,-5.29e-4 z M 8.436754,28.738869 C 8.0886293,28.656158 7.9918143,28.351943 8.019385,27.427396 8.0380566,26.80123 8.0700593,26.639977 8.2476966,26.276958 8.3179291,26.13343 8.81994,25.39567 9.5061252,24.427559 10.133997,23.54172 10.753452,22.649155 10.882692,22.444081 c 0.794622,-1.260879 1.161426,-2.320223 1.16712,-3.370678 0.0064,-1.188753 -0.563609,-1.855531 -1.518317,-1.775943 -0.6107696,0.05091 -0.9500022,0.221463 -1.8887501,0.949559 -0.2877328,0.223166 -0.3994664,-0.0094 -0.4405146,-0.916955 -0.037824,-0.836265 0.066712,-1.249191 0.3841879,-1.517573 0.4910834,-0.415142 1.265928,-0.779747 1.9796358,-0.931521 0.128646,-0.02736 0.423345,-0.05679 0.654887,-0.0654 1.641463,-0.06107 2.806711,0.808471 3.186765,2.378049 0.118074,0.48763 0.145759,0.812034 0.127005,1.488185 -0.03179,1.146219 -0.21774,1.901786 -0.724032,2.941981 -0.499152,1.025524 -0.905739,1.63897 -2.587776,3.904354 -0.388477,0.523205 -0.706323,0.962811 -0.706323,0.9769 0,0.01408 0.937784,0.02561 2.083964,0.02561 h 2.083963 l 0.07913,0.07913 c 0.149058,0.149058 0.182549,0.342498 0.182549,1.05437 0,0.698889 -0.02892,0.896554 -0.150325,1.027554 l -0.07054,0.07612 -3.096184,-0.003 c -1.702901,-0.0016 -3.1394725,-0.01334 -3.192381,-0.0259 z m 18.510755,28.962799 c -0.61684,-0.09072 -1.08305,-0.225893 -1.518079,-0.440131 -0.49975,-0.246111 -0.547284,-0.362972 -0.549406,-1.350688 -0.0015,-0.699746 0.02811,-0.939315 0.132503,-1.072033 0.03305,-0.04201 0.0826,-0.07614 0.11012,-0.07584 0.02752,2.91e-4 0.164132,0.07525 0.303582,0.166554 0.491766,0.321982 0.982133,0.5188 1.446707,0.58066 0.331209,0.0441 0.974194,0.01878 1.22299,-0.04814 0.648348,-0.174413 1.072983,-0.631663 1.273002,-1.370777 0.05558,-0.20538 0.06458,-0.317605 0.06458,-0.805383 0,-0.489109 -0.0089,-0.599442 -0.06493,-0.805383 -0.186882,-0.686859 -0.588109,-1.095501 -1.248776,-1.271856 -0.363336,-0.09699 -1.081493,-0.109152 -1.697248,-0.02875 -0.81976,0.107039 -0.979346,0.08167 -1.076928,-0.171193 -0.05046,-0.130761 -0.05363,-0.334467 -0.05363,-3.449987 0,-3.540455 -0.0035,-3.454147 0.145362,-3.620612 0.140305,-0.156932 0.06367,-0.152758 2.8041,-0.152758 h 2.548688 l 0.07383,0.08774 c 0.127764,0.15184 0.155191,0.341917 0.155191,1.075589 0,0.740415 -0.03019,0.956861 -0.153974,1.103971 l -0.07505,0.08919 h -1.891491 -1.891491 v 1.49493 1.494929 l 0.06712,-0.02115 c 0.03691,-0.01164 0.383306,-0.02825 0.769761,-0.03692 0.827705,-0.01857 1.134672,0.01761 1.657046,0.19528 0.433356,0.147395 0.74264,0.326837 1.033084,0.599383 0.292584,0.274553 0.464836,0.496256 0.636976,0.819845 0.34044,0.639964 0.487733,1.352687 0.488762,2.365049 0.0011,1.064771 -0.152349,1.803695 -0.53763,2.589193 -0.528603,1.077706 -1.416544,1.758619 -2.630308,2.017041 -0.368644,0.07849 -1.152295,0.09992 -1.544464,0.04224 z m 26.281211,22.012095 c -0.44138,-0.09733 -0.832021,-0.33085 -1.098674,-0.656773 -0.285001,-0.348347 -0.521623,-0.958504 -0.613092,-1.580938 -0.06292,-0.428128 -0.09914,-1.140548 -0.07963,-1.566022 0.07661,-1.670489 0.538022,-2.680991 1.421413,-3.112899 0.377537,-0.184585 0.672809,-0.241785 1.129953,-0.21889 0.630513,0.03158 0.999927,0.183079 1.389065,0.56968 0.556462,0.552833 0.793142,1.311414 0.838523,2.687536 0.07251,2.198772 -0.563507,3.54042 -1.83217,3.864889 -0.268706,0.06872 -0.872766,0.07574 -1.155386,0.01342 z m 0.894872,-1.473791 c 0.330332,-0.152458 0.470138,-0.559076 0.522541,-1.519789 0.02932,-0.537385 0.0011,-1.364742 -0.05852,-1.716801 -0.114914,-0.67846 -0.348578,-0.973855 -0.768813,-0.971925 -0.399513,0.0018 -0.624038,0.282495 -0.746866,0.93359 -0.07595,0.402595 -0.07465,2.003492 0.0019,2.391689 0.104008,0.52718 0.226912,0.768526 0.446792,0.877365 0.16175,0.08006 0.436374,0.08274 0.602927,0.0059 z m 25.732963,29.095623 c -0.258601,-0.05485 -0.365932,-0.186084 -0.313341,-0.383114 0.04796,-0.179703 7.525806,-13.662561 7.657102,-13.806074 0.165728,-0.181147 0.332394,-0.229594 0.79597,-0.231377 0.451096,-0.0017 0.616453,0.04653 0.701699,0.204824 0.05225,0.09702 0.05215,0.104861 -0.0032,0.250031 -0.03144,0.08243 -1.735039,3.18069 -3.785782,6.885026 -3.964728,7.161638 -3.846727,6.959661 -4.116404,7.04574 -0.151841,0.04847 -0.764463,0.07134 -0.936027,0.03494 z m 32.724278,28.913719 c -0.445092,-0.06419 -0.805262,-0.237797 -1.107133,-0.533664 -0.419851,-0.411504 -0.656484,-0.974733 -0.776996,-1.849401 -0.07383,-0.535854 -0.07445,-1.767506 -0.0011,-2.231321 0.102193,-0.646423 0.263599,-1.143789 0.503267,-1.550785 0.134289,-0.228048 0.504121,-0.592607 0.740886,-0.73032 0.639855,-0.372171 1.635326,-0.372406 2.261762,-5.29e-4 0.375139,0.222694 0.681918,0.59054 0.870706,1.044031 0.436846,1.049352 0.468636,3.016993 0.06823,4.223524 -0.256683,0.773464 -0.782476,1.349152 -1.410248,1.544076 -0.360974,0.112083 -0.756147,0.1411 -1.149347,0.08439 z m 0.76064,-1.503942 c 0.358725,-0.1856 0.507093,-0.777565 0.507093,-2.023202 0,-1.255208 -0.138615,-1.869101 -0.469411,-2.078885 -0.272354,-0.172721 -0.580829,-0.143058 -0.800901,0.07701 -0.225171,0.22517 -0.328745,0.625408 -0.367472,1.420004 -0.02567,0.526444 0.0013,1.37351 0.05383,1.696116 0.0943,0.578284 0.262271,0.860592 0.560932,0.94275 0.157711,0.04338 0.397055,0.02771 0.515927,-0.0338 z " />
</svg>