<svg width="84.844955mm" height="127.99994mm" viewBox="0 0 84.844956 127.99994" version="1.1" id="svg1" xmlns="http://www.w3.org/2000/svg" xmlns:svg="http://www.w3.org/2000/svg">
  <path id="path10" style="fill:#0000ff;fill-opacity:1;fill-rule:evenodd;stroke:none;stroke-width:4.20061;stroke-linecap:round;stroke-linejoin:bevel;stroke-dasharray:none;stroke-opacity:1;paint-order:normal" d="M 42.422215,0 C 18.993572,3.90312e-5 7.8599999e-4,3.8352953 0,8.5664139 l 10.229866,112.7949561 0.001,0.0131 h 0.0026 c 0.03549,3.66101 14.43632,6.62509 32.189783,6.62553 17.706441,-0.001 32.084843,-2.95072 32.183048,-6.60198 h 0.0078 l 0.0031,-0.0367 L 84.845,8.5894249 h -0.003 l 0.003,-0.023033 C 84.84415,3.8352369 65.851038,-2.4537884e-5 42.422215,0 Z M 42.230496,2.8275552 C 61.76918,2.8275989 77.608699,5.3111188 77.610248,8.3748395 77.610542,11.438765 61.770483,13.922603 42.230496,13.922647 22.690308,13.922648 6.849934,11.438796 6.850228,8.3748395 6.851728,5.3110872 22.691611,2.8275542 42.230496,2.8275552 Z M 4.745963,12.497354 c 7.278638,2.846283 21.812957,4.634705 37.676252,4.635997 15.8612,-6.3e-4 30.395793,-1.787979 37.678315,-4.63338 L 70.237571,118.02086 c -5.698346,2.52222 -16.344271,4.71498 -27.801596,4.7144 -11.475568,0.005 -22.944318,-2.44507 -27.825498,-4.69555 z" />
  <path id="path23" style="fill:#0000ff;fill-opacity:1;fill-rule:evenodd;stroke:#fcfcff;stroke-width:1.57428;stroke-linecap:round;stroke-linejoin:bevel;stroke-dasharray:none;stroke-opacity:0;paint-order:normal" d="m 4.1978204,15.819189 2.779258,25.079141 1.9584121,18.923884 1.0230437,10.062021 4.6231468,48.710955 c 5.180212,3.45354 12.340707,5.34982 27.731758,5.34983 15.391049,-1e-5 22.218432,-1.74873 28.004093,-5.41694 l 3.966142,-43.795282 3.456538,-34.97656 a 36.622234,6.6374382 0.22683293 0 1 -0.106852,0.05807 L 80.135349,16.171831 A 39.215399,6.6374384 0.22585198 0 1 42.223572,20.986835 39.215399,6.6374384 0.22585198 0 1 4.1978204,15.819189 Z" />
</svg>