<svg viewBox="0 0 52.916664 52.916666" xmlns="http://www.w3.org/2000/svg">
  <path d="m 80.463316,81.733862 9.486291,46.959518 m 118.52473,81.776796 -9.48634,46.959524 M 90.128829,128.70897 108.901,128.60394 m 85.383313,104.30158 c 0.488306,-0.22323 0.976606,-0.44645 1.325402,-0.6069 0.348797,-0.16045 0.558053,-0.2581 0.718495,-0.34878 0.160442,-0.0907 0.27206,-0.1744 0.39762,-0.24415 0.125561,-0.0698 0.26508,-0.12556 0.3767,-0.1744 0.11162,-0.0488 0.195308,-0.0907 0.432485,-0.15346 0.237178,-0.0628 0.627824,-0.14649 0.8301,-0.19531 0.202276,-0.0488 0.216247,-0.0628 0.279036,-0.0838 0.06279,-0.0209 0.174401,-0.0488 0.265087,-0.0628 0.09069,-0.0139 0.160444,-0.0139 0.313905,-0.0349 0.153462,-0.0209 0.390645,-0.0628 0.578992,-0.0837 0.188347,-0.0209 0.327862,-0.0209 0.59294,-0.0209 0.265078,0 0.655722,0 1.081243,0 0.425522,0 0.885921,0 1.178899,0.007 0.292979,0.007 0.418546,0.0209 0.572016,0.0279 0.153469,0.007 0.334838,0.007 0.634799,0.0419 0.299961,0.0349 0.7185,0.10464 0.969629,0.13952 0.251128,0.0349 0.334835,0.0349 0.44644,0.0558 0.111604,0.0209 0.251132,0.0628 0.411575,0.0977 0.160443,0.0349 0.341815,0.0628 0.613874,0.12556 0.272058,0.0628 0.634789,0.16044 0.837083,0.20927 0.202295,0.0488 0.244155,0.0488 0.272037,0.0558 0.02788,0.007 0.04185,0.021 0.06279,0.028 0.02093,0.007 0.04884,0.007 0.0907,0.0209 0.04185,0.014 0.09766,0.0418 0.139512,0.0558 0.04185,0.0139 0.06976,0.0139 0.104639,0.0279 0.03487,0.0139 0.07673,0.0418 0.11161,0.0558 0.03488,0.014 0.06279,0.014 0.09765,0.0209 0.03487,0.007 0.07673,0.0209 0.174399,0.0558 0.09766,0.0349 0.251134,0.0907 0.355772,0.13255 0.104638,0.0418 0.160441,0.0697 0.244145,0.0907 0.0837,0.0209 0.195325,0.0349 0.292965,0.0628 0.0977,0.0279 0.18139,0.0698 0.36276,0.11162 0.18138,0.0419 0.4604,0.0837 0.62082,0.11858 0.16043,0.0349 0.20231,0.0628 0.35578,0.0977 0.15346,0.0349 0.41855,0.0767 0.59293,0.11858 0.17438,0.0418 0.25812,0.0837 0.46739,0.10464 0.20927,0.0209 0.54411,0.0209 0.78826,0.0279 0.24414,0.007 0.39762,0.0209 0.56504,0.0279 0.16742,0.007 0.34879,0.007 0.56504,0.0209 0.21624,0.0139 0.46737,0.0418 0.78825,0.0628 0.32089,0.0209 0.71153,0.0348 1.10915,0.0418 0.39762,0.007 0.80221,0.007 1.05336,-0.007 0.25115,-0.0139 0.34877,-0.0418 0.54408,-0.0907 0.19532,-0.0488 0.48831,-0.11858 0.71153,-0.16741 0.22323,-0.0488 0.3767,-0.0767 0.46738,-0.0976 0.0907,-0.0209 0.1186,-0.0349 0.15345,-0.0488 0.0349,-0.0139 0.0767,-0.0279 0.13256,-0.0419 0.0558,-0.014 0.12554,-0.0279 0.19533,-0.0559 0.0698,-0.0279 0.13949,-0.0697 0.23018,-0.0977 0.0907,-0.0279 0.2023,-0.0418 0.31391,-0.0627 0.11161,-0.0209 0.22322,-0.0488 0.36273,-0.0697 0.13951,-0.0209 0.30694,-0.0349 0.3976,-0.0488 0.0907,-0.0139 0.10466,-0.0279 0.15351,-0.0419 0.0488,-0.014 0.13257,-0.0279 0.17442,-0.0418 0.0419,-0.0139 0.0419,-0.0279 0.0558,-0.0349 0.0139,-0.007 0.0418,-0.007 0.0767,-0.021 0.0349,-0.014 0.0767,-0.0418 0.12554,-0.0628 0.0488,-0.0209 0.10466,-0.0349 0.17441,-0.0697 0.0697,-0.0349 0.15346,-0.0907 0.20926,-0.11859 0.0558,-0.0279 0.0837,-0.0279 0.16044,-0.0558 0.0767,-0.0279 0.2023,-0.0837 0.39065,-0.16045 0.18835,-0.0767 0.43947,-0.17439 0.56503,-0.23017 0.12556,-0.0558 0.12556,-0.0698 0.15345,-0.0838 0.0279,-0.014 0.0837,-0.028 0.11163,-0.0419 0.0279,-0.0139 0.0279,-0.0279 0.0488,-0.0419 0.0209,-0.0139 0.0627,-0.0279 0.0976,-0.0488 0.0349,-0.0209 0.0628,-0.0488 0.0907,-0.0628 0.0279,-0.0139 0.0558,-0.0139 0.0767,-0.0279 0.0209,-0.0139 0.0349,-0.0418 0.0768,-0.0558 0.0419,-0.014 0.1116,-0.014 0.18136,-0.014 m 61.238774,193.42741 c -0.04475,-0.15226 -4.112529,-19.99527 -9.039515,-44.09559 -4.926987,-24.10032 -8.996069,-43.97894 -9.042404,-44.1747 -0.05666,-0.23936 -0.01193,-0.35592 0.136578,-0.35592 0.387347,0 8.070687,-3.56788 9.329685,-4.33238 1.681904,-1.021306 3.11797,-1.581134 5.301668,-2.066773 1.029169,-0.228879 2.369517,-0.547687 2.97855,-0.708461 0.609033,-0.160774 2.234925,-0.418593 3.613091,-0.572931 2.091248,-0.234194 2.527582,-0.245301 2.637689,-0.06714 0.545638,0.88286 0.596611,6.560035 0.07595,8.459535 -0.711928,2.59732 -2.135312,4.43442 -3.993954,5.15483 -1.10276,0.42742 -3.509426,0.58392 -4.814226,0.31304 -1.247693,-0.25902 -2.846455,-1.07035 -4.360087,-2.21264 -2.196682,-1.65777 -2.333516,-1.42659 -2.333516,3.94244 0,4.40663 0.0981,4.98433 0.98426,5.79601 0.838082,0.76766 2.92995,1.7525 4.710597,2.21774 2.032239,0.53097 5.204872,0.59906 6.960382,0.14939 4.578893,-1.17287 7.995769,-4.69268 9.805454,-10.10085 1.098571,-3.28303 1.505165,-6.16173 1.505165,-10.65663 v -2.957197 l 2.063793,0.09872 c 1.135086,0.05429 2.131686,0.140677 2.214667,0.191962 0.08298,0.05128 0.150874,0.469132 0.150874,0.928549 0,1.44757 0.463235,5.781086 0.864125,8.083796 0.804311,4.61995 2.272639,8.4776 4.099644,10.77074 1.965306,2.46673 4.264246,3.53819 7.602267,3.54316 4.978152,0.007 8.314709,-2.73598 10.635179,-8.74445 0.63824,-1.6526 1.52535,-5.02286 1.80394,-6.8534 0.15775,-1.03654 0.24409,-1.27286 0.4481,-1.22637 0.13898,0.0317 1.64081,0.41906 3.33741,0.86085 2.81314,0.73255 3.35628,0.82261 6.16943,1.02297 1.69659,0.12084 3.09621,0.22225 3.11026,0.22536 0.0141,0.003 -1.21389,2.88815 -2.72878,6.41119 -2.98172,6.93433 -3.10156,7.34058 -2.37873,8.06342 0.46286,0.46285 1.49376,0.63821 2.9031,0.49382 1.22816,-0.12583 1.78866,-0.38751 2.31628,-1.08139 0.21508,-0.28286 1.61538,-3.36171 3.11179,-6.8419 1.49641,-3.4802 2.76562,-6.37385 2.82048,-6.43035 0.0815,-0.084 7.12969,0.16609 7.25676,0.25744 0.0212,0.0152 0.11188,0.76966 0.20162,1.67656 0.68975,6.97042 2.89945,10.55625 6.93112,11.2476 3.41702,0.58596 6.33898,-1.0546 8.00167,-4.49257 1.18274,-2.44559 1.76174,-5.33164 1.9389,-9.66453 l 0.1023,-2.50194 0.8844,-0.4442 c 0.48642,-0.2443 1.91659,-0.84879 3.17816,-1.34329 1.26157,-0.49451 2.88037,-1.21533 3.59733,-1.601847 1.08993,-0.587566 1.78873,-0.848063 1.77908,-0.663193 -0.0118,0.226504 -19.27613,94.11403 -19.31867,94.15244 -0.0711,0.0643 -59.542758,0.41145 -69.927577,0.40825 -7.046136,-0.002 -7.548294,-0.0206 -7.624294,-0.27916 z m 91.590933,110.51741 c -1.680886,-0.76361 -2.706194,-3.00932 -3.318217,-7.26783 -0.234318,-1.6304 -0.528056,-4.617814 -0.454048,-4.617814 0.562654,0 8.061691,2.045394 9.41366,2.567624 1.030018,0.39786 0.990053,0.11158 0.438666,3.14227 -0.509082,2.79817 -1.275347,4.60088 -2.379783,5.59867 -0.978354,0.88388 -2.501903,1.12149 -3.700278,0.57708 z m 139.17446,112.87452 c -0.96028,-0.58551 -1.52809,-2.30188 -1.74936,-5.28791 -0.12014,-1.62125 -0.11222,-1.69224 0.1959,-1.75644 1.34019,-0.27924 3.26323,-0.78803 3.7222,-0.98479 0.30451,-0.13055 0.78231,-0.29256 1.06176,-0.36004 l 0.50809,-0.12268 -0.0916,2.07801 c -0.17397,3.94814 -0.77777,6.05959 -1.86244,6.51279 -0.74313,0.3105 -1.17739,0.2913 -1.78459,-0.0789 z m 61.857233,193.59704 c -0.530718,-0.0542 -0.570905,-0.0783 -0.635795,-0.38166 -0.275883,-1.28974 -2.887138,-14.0345 -10.773545,-52.58246 -7.121815,-34.81071 -7.191718,-35.14978 -7.251062,-35.17113 -0.13557,-0.0488 -0.333316,-0.27414 -0.375155,-0.42754 -0.0558,-0.2046 0.01145,-0.48244 0.144765,-0.59809 0.0543,-0.0471 1.231279,-0.5961 2.615516,-1.22 5.008145,-2.25725 5.344178,-2.41944 6.486415,-3.13078 0.920192,-0.573061 1.309626,-0.77482 2.301997,-1.192626 1.085703,-0.4571 1.611875,-0.609029 3.722416,-1.074826 1.055339,-0.232914 2.145309,-0.495522 2.422157,-0.583575 0.676161,-0.215056 1.210276,-0.318926 2.013436,-0.391556 0.36913,-0.03338 1.136752,-0.125111 1.705828,-0.203845 0.569075,-0.07873 1.440875,-0.157081 1.937334,-0.174106 l 0.90265,-0.03095 0.08586,0.301273 c 0.170988,0.599956 0.2132,0.789551 0.189783,0.85244 -0.01312,0.03523 0.0098,0.303144 0.05095,0.595372 0.205048,1.456539 0.201001,4.631739 -0.008,6.245549 -0.235065,1.81542 -1.059051,3.64198 -2.171379,4.81337 -1.300272,1.36933 -2.594434,1.82454 -5.181902,1.82271 -0.815825,-5.7e-4 -1.200066,-0.0247 -1.525032,-0.0957 -1.387193,-0.30329 -2.755322,-1.00559 -4.683063,-2.40396 -0.938971,-0.68112 -1.35463,-0.83686 -1.660934,-0.62232 -0.14132,0.099 -0.270424,0.46318 -0.356873,1.0067 -0.09187,0.57759 -0.134196,5.65412 -0.05706,6.84361 0.09955,1.53517 0.263199,2.06301 0.808147,2.6066 0.693535,0.6918 2.133232,1.44999 3.892886,2.05011 1.50529,0.51337 2.920531,0.71853 4.963304,0.71952 1.421954,6.8e-4 2.243284,-0.0861 3.188488,-0.33676 2.084951,-0.55299 3.956774,-1.64467 5.556293,-3.24052 1.825709,-1.82153 3.100897,-3.98887 4.081338,-6.93674 0.712615,-2.14259 1.087112,-3.95615 1.316615,-6.37588 0.108944,-1.14864 0.185876,-6.365128 0.09475,-6.42455 -0.02971,-0.01937 -0.07114,-0.305781 -0.09207,-0.63646 -0.03796,-0.599946 -0.03777,-0.601233 0.08956,-0.600461 0.765208,0.0046 4.337367,0.247367 4.388173,0.298172 0.0129,0.0129 0.0345,0.422808 0.04801,0.910916 0.05278,1.907291 0.121636,2.815843 0.393641,5.193993 0.419336,3.66626 0.972763,6.32612 1.843801,8.8616 1.699898,4.94819 4.147532,7.74565 7.514016,8.58795 1.611874,0.40329 3.891571,0.41809 5.494704,0.0357 2.920128,-0.69658 5.221324,-2.71542 6.945954,-6.09372 0.83417,-1.634 1.3867,-3.11278 1.99222,-5.33192 0.49497,-1.81403 0.9989,-4.23039 0.934,-4.47858 -0.0225,-0.086 0.11836,-1.16055 0.15795,-1.205 0.037,-0.0416 1.75691,0.36135 2.34883,0.55023 0.37004,0.11808 1.1384,0.31727 1.70747,0.44263 0.56908,0.12537 1.42479,0.33958 1.90158,0.47603 1.07649,0.30806 1.355,0.34431 3.43962,0.44775 2.42875,0.12053 3.71926,0.2176 3.71926,0.27981 0,0.0892 -0.46627,1.07548 -0.53155,1.12442 -0.0764,0.0573 -2.5182,5.69859 -3.97967,9.19428 -1.02515,2.45208 -1.37691,3.60982 -1.24529,4.09862 0.0718,0.26675 0.39047,0.62645 0.69114,0.78018 0.53673,0.27443 1.41739,0.37243 2.43672,0.27114 1.36008,-0.13514 1.99595,-0.41895 2.46452,-1.09999 0.28129,-0.40885 1.41716,-2.90876 3.34309,-7.35778 0.64381,-1.48726 1.42711,-3.28849 1.74067,-4.00273 0.31356,-0.71426 0.5541,-1.32454 0.53453,-1.3562 -0.0258,-0.0418 0.35313,-1.02674 0.44776,-1.16366 0.006,-0.008 0.6206,0.0225 1.36615,0.0688 0.74554,0.0463 2.35359,0.11354 3.57342,0.14946 1.21984,0.0359 2.23047,0.0762 2.24585,0.0894 0.0521,0.0449 0.0843,1.13392 0.034,1.15055 -0.0546,0.0181 0.0727,1.33813 0.24922,2.58395 0.6926,4.88945 2.30362,7.90436 4.89015,9.15152 1.29479,0.62431 2.84298,0.85557 4.27879,0.63913 2.50711,-0.37795 4.52474,-2.07794 5.77866,-4.86891 1.06502,-2.37052 1.5796,-5.0054 1.76949,-9.06047 0.0317,-0.67673 0.0691,-1.43882 0.0831,-1.69354 0.0158,-0.28597 0.005,-0.4505 -0.0278,-0.43013 -0.0327,0.0202 -0.0533,-0.22394 -0.0533,-0.63027 v -0.66321 l 0.20973,-0.0736 c 0.11535,-0.0405 0.42869,-0.19772 0.69631,-0.34941 0.26761,-0.1517 0.69547,-0.34755 0.95079,-0.43523 1.0919,-0.37498 4.14158,-1.62973 4.60294,-1.893822 0.0615,-0.03522 0.19995,-0.102722 0.30761,-0.150013 0.10766,-0.04729 0.35934,-0.18548 0.55929,-0.307087 1.07445,-0.653477 1.28621,-0.746816 1.75604,-0.774014 0.66071,-0.03825 0.95844,0.164497 0.94487,0.643425 -0.007,0.244714 -0.24473,0.504923 -0.49024,0.536451 -0.16514,0.02121 -0.16721,0.02599 -0.29806,0.68799 -0.44953,2.27436 -7.02432,34.37181 -12.81302,62.55184 -5.46461,26.60234 -6.21098,30.21704 -6.24674,30.253 -0.0462,0.0465 -15.46032,0.15715 -43.647436,0.31339 -15.067735,0.0835 -32.553257,0.0973 -33.24966,0.0262 z m 59.620081,121.0088 c -2.402264,-0.31137 -4.915679,-1.22064 -6.405277,-2.31722 -1.131899,-0.83326 -1.319298,-1.42949 -1.427231,-4.54094 -0.07406,-2.13508 0.07463,-5.09849 0.284967,-5.67913 0.0729,-0.20124 0.222308,-0.41394 0.332019,-0.47265 0.219123,-0.11727 0.231039,-0.11004 1.81379,1.10038 1.104138,0.8444 2.861748,1.72915 3.947584,1.98714 1.087226,0.25832 3.337039,0.25708 4.306516,-0.002 2.306006,-0.61712 3.719723,-2.02589 4.600988,-4.58488 0.497178,-1.44369 0.689067,-2.87671 0.690443,-5.15618 0.0034,-5.600688 -1.625564,-8.523259 -5.246738,-9.413425 -1.213862,-0.298394 -3.606079,-0.249515 -5.672391,0.115904 -2.548115,0.450623 -3.094838,0.379067 -3.492636,-0.457122 -0.303055,-0.637034 -0.359825,-3.122867 -0.404368,-17.706386 -0.03102,-10.156744 -0.0096,-12.905036 0.103644,-13.278 0.166994,-0.550127 0.620709,-1.128474 0.997754,-1.271826 0.14602,-0.05552 4.272404,-0.156335 9.16974,-0.224041 l 8.904248,-0.123101 0.25947,0.261636 c 0.387348,0.390578 0.599784,1.402217 0.705566,3.359966 0.144526,2.67479 -0.0613,5.65223 -0.4396,6.359085 -0.292288,0.546146 -0.01529,0.52213 -7.043893,0.610706 l -6.609831,0.0833 0.03297,6.520274 c 0.01814,3.58615 0.05814,6.544444 0.0889,6.573985 0.03076,0.02954 0.357944,-8.45e-4 0.727074,-0.06753 0.36913,-0.06668 1.7282,-0.124243 3.020155,-0.127917 2.116878,-0.006 2.448492,0.01926 3.355727,0.25576 4.434075,1.155904 7.290331,4.488891 8.593276,10.027558 0.606525,2.578268 0.691013,3.503451 0.689505,7.550384 -0.0011,3.07804 -0.03826,3.98694 -0.207829,5.08952 -0.459366,2.98696 -1.194137,5.53965 -2.202755,7.65264 -2.121593,4.44462 -5.68654,7.20597 -10.116067,7.83574 -0.753155,0.10708 -2.658746,0.12908 -3.355727,0.0387 z m 91.611344,120.63779 c -1.303623,-0.11697 -2.21261,-0.377 -3.411655,-0.97596 -2.32452,-1.16115 -4.390833,-3.91503 -5.645936,-7.52462 -1.456579,-4.18903 -2.200935,-9.44333 -2.519578,-17.785355 -0.313874,-8.217186 0.07527,-16.040074 1.071128,-21.532581 1.341931,-7.401228 3.91976,-12.144633 7.654901,-14.085609 2.278798,-1.184183 5.280297,-1.396114 7.828802,-0.552779 4.207614,1.392357 7.026634,6.114717 8.329604,13.953562 1.21788,7.327012 1.50704,19.619555 0.66733,28.369572 -1.10201,11.48331 -4.41025,18.08207 -9.917301,19.78147 -0.615399,0.18991 -2.817368,0.50959 -3.090392,0.44867 -0.03962,-0.009 -0.474729,-0.0522 -0.966903,-0.0964 z m 2.927413,-10.00251 c 2.280047,-1.06159 3.462832,-4.7084 3.957081,-12.200624 0.156911,-2.378569 0.156958,-12.898451 7.2e-5,-15.995632 -0.411958,-8.13273 -1.331031,-12.372213 -3.050264,-14.070203 -0.794872,-0.785051 -1.458764,-1.019534 -2.69454,-0.951695 -1.737419,0.09538 -2.782156,0.988624 -3.66756,3.135751 -1.262279,3.061057 -1.713211,7.672293 -1.703805,17.423097 0.01246,12.919846 0.794644,19.024836 2.768732,21.610216 0.703537,0.9214 1.563191,1.30881 2.91702,1.31458 0.716051,0.003 1.010436,-0.05 1.473264,-0.26549 z m 116.43277,89.549275 c -1.48543,-0.235938 -2.54706,-0.799001 -3.68035,-1.951963 -1.82948,-1.861251 -2.80733,-4.649292 -3.23867,-9.234084 -0.19954,-2.120939 -0.23202,-6.993156 -0.0583,-8.748008 0.49395,-4.990191 1.71394,-8.26407 3.79886,-10.194392 1.2946,-1.1986 2.74991,-1.755217 4.58765,-1.754658 1.91805,5.82e-4 3.25751,0.502079 4.54387,1.701242 2.1061,1.963337 3.16333,4.98014 3.63108,10.361243 0.19947,2.294776 0.0752,7.721718 -0.22066,9.634286 -0.62855,4.063645 -1.60476,6.417953 -3.41446,8.234595 -0.94146,0.945069 -1.72036,1.427451 -2.84307,1.760747 -0.72617,0.215573 -2.33018,0.314209 -3.10593,0.190992 z m 2.2321,-6.648924 c 0.81352,-0.339911 1.33155,-1.381121 1.72072,-3.458524 0.286,-1.526694 0.28137,-9.047158 -0.007,-10.968573 -0.45927,-3.062771 -1.23997,-4.320829 -2.68226,-4.322368 -2.08146,-0.0022 -2.87446,2.484809 -2.87469,9.015681 -2.1e-4,6.123449 0.63079,9.090432 2.06927,9.729771 0.43967,0.195412 1.31092,0.197383 1.77372,0.004 z m 113.98662,120.81723 c -0.65339,-0.18413 -1.17858,-0.70117 -1.17764,-1.15937 3.4e-4,-0.16821 0.0562,-0.50718 0.12412,-0.75327 0.13015,-0.47151 25.63051,-59.758259 26.13535,-60.763053 0.61217,-1.21839 1.22464,-1.570861 2.90779,-1.673403 2.03595,-0.124035 2.90291,0.360691 2.80058,1.565819 -0.039,0.459455 -2.74168,6.832055 -13.05442,30.780952 -7.15287,16.610845 -13.12472,30.408565 -13.27078,30.661595 -0.34959,0.60563 -0.94971,1.12159 -1.47352,1.26686 -0.74022,0.2053 -2.38131,0.24582 -2.99148,0.0739 z m 138.81524,119.78494 c -1.19784,-0.18595 -2.27444,-0.66444 -3.21032,-1.4268 -2.08258,-1.69646 -3.28498,-4.84922 -3.80166,-9.96816 -0.20316,-2.01279 -0.16856,-7.49393 0.0589,-9.322207 0.585,-4.703088 1.69464,-7.501092 3.74003,-9.430604 1.38786,-1.309243 2.91671,-1.84144 5.0032,-1.741634 2.64225,0.12639 4.65595,1.539845 5.93123,4.16324 1.39376,2.867125 1.89048,5.956264 1.88856,11.745045 -0.001,3.73712 -0.11285,5.12709 -0.60624,7.55038 -0.89184,4.38024 -2.95029,7.27287 -5.81571,8.17249 -0.71749,0.22526 -2.48047,0.36808 -3.18794,0.25825 z m 2.30084,-6.70096 c 1.17615,-0.60821 1.72704,-2.78615 1.85218,-7.32265 0.14502,-5.25685 -0.36216,-9.265981 -1.33166,-10.52646 -0.99948,-1.29946 -2.67133,-1.145515 -3.46699,0.319243 -0.84671,1.558744 -1.22196,5.496497 -0.98338,10.319067 0.22339,4.51527 0.78898,6.63312 1.92027,7.19038 0.48331,0.23808 1.56738,0.24909 2.00958,0.0204 z " />
</svg>