<svg viewBox="0 0 52.916664 52.916666" xmlns="http://www.w3.org/2000/svg">
  <path d="M 5.3149388,0.42101786 15.854347,51.913651 M 47.601725,0.46809638 37.062263,51.960736 M 16.053465,51.930746 36.909621,51.815577 m 9.0194245,15.672766 c 0.6018202,-0.232471 1.2036325,-0.464931 1.6335115,-0.632073 0.429881,-0.167142 0.687781,-0.268933 0.885521,-0.364235 0.197739,-0.09532 0.335304,-0.184125 0.490052,-0.257381 0.15475,-0.07331 0.326702,-0.130977 0.46427,-0.181729 0.137568,-0.05071 0.24071,-0.09453 0.533023,-0.157597 0.292314,-0.06311 0.773771,-0.145515 1.023069,-0.19417 0.249298,-0.04863 0.266517,-0.06359 0.343903,-0.08508 0.07739,-0.02137 0.214943,-0.04927 0.32671,-0.06248 0.111772,-0.01309 0.197742,-0.0115 0.386877,-0.0309 0.189137,-0.0193 0.481456,-0.0596 0.713588,-0.0781 0.232131,-0.0185 0.404078,-0.0153 0.730778,-0.0092 0.326699,0.0061 0.808154,0.01501 1.332594,0.02476 0.524441,0.0097 1.091867,0.02029 1.452952,0.03463 0.361087,0.01435 0.515844,0.0324 0.70499,0.04355 0.189145,0.01115 0.412676,0.01531 0.782368,0.06027 0.369691,0.04496 0.885526,0.130665 1.195034,0.174486 0.309506,0.04384 0.412672,0.04576 0.550222,0.07113 0.137548,0.02537 0.309511,0.07429 0.507252,0.116062 0.19774,0.04177 0.421275,0.07637 0.756578,0.151102 0.335302,0.07478 0.782355,0.189653 1.031676,0.247582 0.249321,0.0579 0.300912,0.05886 0.335276,0.06713 0.03436,0.0083 0.05158,0.02388 0.07739,0.032 0.0258,0.0081 0.06019,0.0088 0.111785,0.02489 0.05158,0.01624 0.120363,0.04786 0.171944,0.0641 0.05158,0.01613 0.08598,0.01677 0.128964,0.03285 0.04298,0.01597 0.09457,0.04738 0.137555,0.06346 0.04299,0.01608 0.07739,0.01672 0.12035,0.02505 0.04298,0.0084 0.09457,0.02457 0.214941,0.0649 0.120363,0.04033 0.309514,0.104748 0.438477,0.152822 0.128962,0.04802 0.197738,0.07975 0.3009,0.104588 0.103157,0.02473 0.240729,0.04256 0.361067,0.07525 0.120412,0.03269 0.223557,0.08034 0.447089,0.130138 0.223544,0.04989 0.567427,0.101899 0.765139,0.143643 0.197724,0.04177 0.24934,0.07318 0.438486,0.114784 0.189135,0.04161 0.515849,0.0933 0.730766,0.143005 0.214917,0.04962 0.318124,0.09727 0.576042,0.124915 0.257918,0.0276 0.670597,0.03527 0.971503,0.0485 0.300894,0.01323 0.490053,0.03192 0.696392,0.04339 0.20634,0.01147 0.429872,0.01563 0.696392,0.03575 0.266509,0.02012 0.576018,0.05633 0.971491,0.08659 0.395486,0.03016 0.876936,0.05428 1.366989,0.07102 0.490053,0.01675 0.988696,0.02601 1.29823,0.01648 0.309533,-0.0094 0.429847,-0.03764 0.67056,-0.08654 0.240725,-0.04879 0.601825,-0.118247 0.876936,-0.166433 0.275123,-0.04815 0.464269,-0.07509 0.576029,-0.09583 0.111785,-0.02074 0.146171,-0.03538 0.189122,-0.04975 0.04301,-0.01437 0.09453,-0.0287 0.163376,-0.0427 0.06877,-0.014 0.154723,-0.02758 0.240737,-0.05654 0.08603,-0.02885 0.171917,-0.07288 0.283689,-0.101368 0.111784,-0.02837 0.249328,-0.04099 0.386883,-0.06125 0.137556,-0.02026 0.275111,-0.04815 0.447052,-0.06777 0.171941,-0.01962 0.378293,-0.03106 0.490028,-0.04416 0.111785,-0.01309 0.12899,-0.02806 0.189196,-0.04222 0.06014,-0.01416 0.163388,-0.02742 0.214967,-0.04163 0.05164,-0.01421 0.05164,-0.02949 0.06877,-0.03682 0.01713,-0.0073 0.05152,-0.0067 0.09453,-0.02116 0.04301,-0.01448 0.09453,-0.04387 0.154724,-0.06567 0.06014,-0.02169 0.12899,-0.0357 0.214954,-0.07208 0.0859,-0.0365 0.189135,-0.09548 0.257906,-0.124647 0.06877,-0.02917 0.103157,-0.02854 0.197737,-0.05723 0.09453,-0.0287 0.249328,-0.08672 0.481462,-0.166183 0.232135,-0.0794 0.541632,-0.180281 0.69638,-0.238289 0.154749,-0.05803 0.154749,-0.07331 0.189122,-0.08795 0.03439,-0.01464 0.103157,-0.02865 0.13758,-0.04318 0.03439,-0.01453 0.03439,-0.02981 0.06014,-0.04462 0.02576,-0.01469 0.07728,-0.02902 0.120289,-0.05103 0.04301,-0.02201 0.0774,-0.05183 0.111785,-0.06647 0.03439,-0.01453 0.06877,-0.01389 0.09453,-0.0287 0.02576,-0.01469 0.04301,-0.04482 0.09465,-0.05915 0.05164,-0.01432 0.137543,-0.01272 0.22352,-0.01113 m 16.20298,51.177666 c -0.0248,-0.08526 -7.2251761,-35.275677 -7.2251761,-35.311618 0,-0.01325 0.029247,-0.0241 0.064993,-0.0241 0.1208159,0 2.2539111,-0.845011 2.8020451,-1.110011 0.679549,-0.328533 0.915704,-0.407793 1.616849,-0.542655 0.307774,-0.0592 0.719683,-0.14386 0.915352,-0.188136 0.803148,-0.181734 1.548094,-0.218186 3.494857,-0.171011 2.0972,0.05082 2.601945,0.08493 3.777877,0.255285 1.532357,0.221992 2.97961,0.548955 4.341908,0.98092 1.142968,0.362418 1.488852,0.457561 2.064477,0.567871 0.23768,0.04555 0.548449,0.110685 0.6906,0.144749 1.110603,0.266138 1.40058,0.31063 2.313164,0.354923 0.935654,0.04541 1.760006,0.101728 2.507434,0.171297 0.230201,0.02143 0.983581,0.05021 1.674183,0.06397 l 1.255637,0.02501 0.753382,-0.146599 c 0.414361,-0.08063 0.838139,-0.15941 0.941729,-0.175068 0.207166,-0.03132 0.884163,-0.202776 1.050809,-0.266135 0.05799,-0.02205 0.358521,-0.07094 0.66785,-0.108655 0.788019,-0.09608 1.114539,-0.167895 1.535763,-0.337798 0.201298,-0.08119 0.573178,-0.215277 0.826397,-0.297962 0.592188,-0.193369 1.161757,-0.412475 1.408819,-0.541956 0.107273,-0.05622 0.282496,-0.118553 0.389388,-0.138523 l 0.194347,-0.03631 -0.02347,0.110113 c -0.01291,0.06056 -1.707102,8.33733 -3.764888,18.392817 -2.057787,10.055489 -3.748051,18.288663 -3.756144,18.295944 -0.01847,0.01662 -15.802105,0.108326 -18.501151,0.107492 -1.864375,-5.29e-4 -1.997137,-0.0054 -2.017039,-0.07386 z m 15.496171,34.913944 c -0.313271,-0.06563 -0.408104,-0.169595 -0.378153,-0.414568 0.0092,-0.075 0.702042,-2.655649 1.539717,-5.734782 0.837676,-3.079136 1.523047,-5.613594 1.523047,-5.632129 0,-0.02492 -0.485885,-0.02811 -1.864301,-0.01225 -2.120915,0.0244 -1.942101,0.04541 -2.032479,-0.238799 -0.06266,-0.197049 -0.09291,-1.385697 -0.04443,-1.74592 0.0345,-0.256381 0.09945,-0.433622 0.168631,-0.460167 0.02251,-0.0086 1.239613,-0.03107 2.704679,-0.04984 1.923152,-0.02465 2.687013,-0.0251 2.747408,-0.0016 0.123624,0.04802 0.191999,0.232483 0.228377,0.616108 0.06258,0.659976 0.0226,1.448547 -0.102012,2.011755 -0.119135,0.538468 -2.913721,11.316078 -2.95459,11.39468 -0.05724,0.110101 -0.17059,0.206044 -0.285754,0.241882 -0.134932,0.04199 -1.079646,0.06139 -1.250137,0.02566 z m 23.027996,34.976023 c -0.551309,-0.115919 -1.055132,-0.327221 -1.319238,-0.553286 -0.162427,-0.139031 -0.214965,-0.287734 -0.252199,-0.713822 -0.0362,-0.4143 -0.01367,-1.347351 0.0368,-1.523412 0.03205,-0.111835 0.104662,-0.223954 0.144753,-0.223531 0.0098,1.03e-4 0.148379,0.0982 0.308039,0.217988 0.159661,0.11979 0.402444,0.273137 0.539519,0.34077 0.372537,0.183811 0.565167,0.22652 1.019589,0.226068 0.337685,-2.65e-4 0.418863,-0.01056 0.62842,-0.07907 0.53812,-0.175953 0.860099,-0.565248 1.0507,-1.270365 0.07257,-0.268451 0.07723,-0.327125 0.07723,-0.971769 0,-0.644642 -0.0047,-0.703318 -0.07723,-0.971767 -0.175383,-0.64882 -0.484792,-1.014664 -1.007967,-1.191813 -0.303162,-0.102651 -0.911419,-0.115033 -1.416878,-0.02884 -0.213278,0.03637 -0.477982,0.06802 -0.588232,0.07034 -0.17885,0.0038 -0.208813,-0.0041 -0.278001,-0.07312 -0.04265,-0.04253 -0.09103,-0.12978 -0.107518,-0.193886 -0.03321,-0.129157 -0.09893,-6.589052 -0.07007,-6.887743 0.03345,-0.346203 0.141927,-0.53507 0.325693,-0.56706 0.17427,-0.03034 4.261574,-0.0717 4.313971,-0.04366 0.13697,0.0733 0.207868,0.50842 0.206317,1.266176 -0.0016,0.78809 -0.08298,1.1318 -0.274953,1.161521 -0.05328,0.0083 -0.771676,0.02033 -1.596439,0.02686 -0.824763,0.0065 -1.506232,0.01852 -1.514376,0.02666 -0.0081,0.0081 -0.0056,0.702572 0.0056,1.543173 l 0.02036,1.528365 0.09205,-0.019 c 0.05063,-0.01045 0.355579,-0.02661 0.677664,-0.03591 0.67596,-0.01952 0.927304,0.01543 1.318035,0.183243 0.353567,0.151852 0.548006,0.278087 0.781944,0.507661 0.675609,0.663001 1.023284,1.688568 1.07695,3.176789 0.04005,1.110538 -0.130106,2.183518 -0.480034,3.027073 -0.432982,1.043776 -1.18678,1.75078 -2.149002,2.015604 -0.343879,0.09464 -1.110162,0.109935 -1.491451,0.02976 z m 29.698131,27.708747 c -0.381238,-0.102526 -0.765331,-0.403135 -0.985229,-0.77108 -0.229759,-0.384445 -0.402198,-1.002911 -0.485084,-1.739786 -0.06126,-0.544643 -0.05204,-1.926818 0.01609,-2.408517 0.161732,-1.143778 0.503717,-1.866333 1.056492,-2.232189 0.414814,-0.274544 0.906698,-0.347552 1.407303,-0.208879 0.596387,0.165207 1.025348,0.674801 1.263872,1.501454 0.178419,0.618343 0.240774,1.293633 0.220348,2.386321 -0.01617,0.864747 -0.05209,1.198423 -0.186571,1.732733 -0.239705,0.952398 -0.736399,1.56743 -1.405081,1.739835 -0.227576,0.05868 -0.684149,0.05873 -0.902128,1.08e-4 z m 0.724485,-1.515711 c 0.186885,-0.07809 0.326937,-0.351425 0.407633,-0.795584 0.01918,-0.105566 0.04145,-0.574921 0.0495,-1.043011 0.01987,-1.156451 -0.04308,-1.804416 -0.212543,-2.187603 -0.218405,-0.493853 -0.753483,-0.491892 -0.972645,0.0036 -0.15182,0.343213 -0.224263,1.091327 -0.198586,2.050754 0.03983,1.488067 0.222205,2.013459 0.698934,2.013459 0.07051,0 0.172977,-0.01871 0.227709,-0.04158 z m 29.257274,35.062915 c -0.114128,-0.03524 -0.248563,-0.18674 -0.248563,-0.280128 0,-0.03731 0.01556,-0.113458 0.03458,-0.169227 0.0412,-0.120798 6.142074,-13.964826 6.249236,-14.180688 0.15621,-0.314671 0.298947,-0.399986 0.709184,-0.423889 0.314195,-0.01831 0.496347,0.02076 0.605425,0.129831 0.06496,0.06496 0.07299,0.09471 0.06181,0.229102 -0.01037,0.124524 -0.619093,1.529235 -3.142268,7.251077 -1.721184,3.903149 -3.166494,7.147806 -3.211801,7.210353 -0.133752,0.184637 -0.283776,0.243208 -0.64993,0.253733 -0.172263,0.0049 -0.355717,-0.0041 -0.407676,-0.02016 z M 35.042063,34.779385 C 34.54679,34.646003 34.142718,34.253766 33.900029,33.670802 33.46058,32.615196 33.39627,30.303889 33.770425,29.012754 c 0.15919,-0.549322 0.388988,-0.956111 0.69818,-1.235913 0.335476,-0.303589 0.623472,-0.408954 1.116214,-0.408369 0.519874,5.29e-4 0.779055,0.105868 1.136338,0.461476 0.266297,0.265049 0.422986,0.531913 0.560755,0.955048 0.362558,1.113544 0.379092,3.227268 0.03451,4.41172 -0.246229,0.846368 -0.716563,1.405779 -1.323409,1.574051 -0.238826,0.06623 -0.720823,0.07059 -0.950947,0.0086 z m 0.818573,-1.558552 c 0.285872,-0.20356 0.42595,-1.063834 0.384398,-2.36071 -0.04766,-1.487374 -0.230828,-1.988402 -0.724326,-1.981266 -0.359342,0.0052 -0.549098,0.335687 -0.63735,1.110043 -0.04832,0.423987 -0.01976,2.109396 0.04107,2.424618 0.09693,0.502155 0.184756,0.69347 0.378912,0.82536 0.08713,0.05919 0.132477,0.06867 0.283935,0.05935 0.125175,-0.0077 0.20869,-0.03135 0.273357,-0.07739 z " />
</svg>