<svg width="84.844955mm" height="127.99994mm" viewBox="0 0 84.844956 127.99994" version="1.1" id="svg1" xmlns="http://www.w3.org/2000/svg" xmlns:svg="http://www.w3.org/2000/svg">
  <path id="path10" style="fill:#0000ff;fill-opacity:1;fill-rule:evenodd;stroke:none;stroke-width:4.20061;stroke-linecap:round;stroke-linejoin:bevel;stroke-dasharray:none;stroke-opacity:1;paint-order:normal" d="M 42.422217,0 C 18.993574,3.9030964e-5 7.8599999e-4,3.8352836 0,8.5664022 l 10.229867,112.7951778 10e-4,0.0129 h 0.0026 c 0.03549,3.66101 14.436303,6.625 32.189766,6.62544 17.706441,-0.001 32.084844,-2.95041 32.183049,-6.60167 h 0.0078 l 0.0031,-0.0372 L 84.84495,8.5896566 h -0.0031 l 0.0031,-0.023254 C 84.8441,3.8352472 65.85104,-2.453812e-5 42.422217,0 Z m -0.19172,2.8277344 C 61.769181,2.8277781 77.608701,5.3109619 77.61025,8.3746826 77.610544,11.438608 61.770484,13.92262 42.230497,13.922664 22.690309,13.922665 6.8499339,11.438639 6.8502279,8.3746826 6.8517279,5.3109303 22.691612,2.8277334 42.230497,2.8277344 Z M 4.7459635,12.497428 c 7.2786385,2.846283 21.8129585,4.634601 37.6762535,4.635893 15.8612,-6.3e-4 30.395798,-1.787908 37.67832,-4.633309 L 72.47723,94.058858 a 30.847694,6.4652838 0.07307737 0 0 -60.110543,-0.02532 z" />
</svg>