<svg width="163.23666" height="197.46086" viewBox="0 0 43.189698 52.244852" version="1.1" id="svg1" xmlns="http://www.w3.org/2000/svg" xmlns:svg="http://www.w3.org/2000/svg">
  <path style="fill:#3a00af;fill-opacity:1;fill-rule:evenodd;stroke:#5b36c1;stroke-width:0.921631;stroke-linecap:butt;stroke-linejoin:miter;stroke-dasharray:none;stroke-opacity:1" d="M 0.45145571,0.09240309 10.990864,51.585036" id="path49" />
  <path style="fill:#3a00af;fill-opacity:1;fill-rule:evenodd;stroke:#5b36c1;stroke-width:0.921631;stroke-linecap:butt;stroke-linejoin:miter;stroke-dasharray:none;stroke-opacity:1" d="M 42.738242,0.13948161 32.19878,51.632121" id="path50" />
  <path style="fill:#f90000;fill-opacity:0;stroke:#b5b5ff;stroke-width:0.0116645;stroke-linecap:round;stroke-linejoin:round;stroke-dasharray:none" d="m 22.715461,20.935951 c -0.252607,-0.08214 -0.469,-0.238729 -0.669236,-0.48429 -0.471253,-0.577923 -0.702707,-1.433733 -0.799173,-2.95497 -0.03502,-0.552248 -0.0194,-1.837038 0.02835,-2.331735 0.168344,-1.74416 0.654775,-2.748482 1.451981,-2.997873 0.206225,-0.06451 0.621465,-0.06598 0.817867,-0.0029 0.831128,0.267007 1.310025,1.310576 1.459365,3.180118 0.03922,0.491002 0.03884,1.936832 -6.78e-4,2.413265 -0.07611,0.918588 -0.194475,1.491147 -0.424713,2.05443 -0.131941,0.3228 -0.183479,0.411373 -0.370674,0.637057 -0.23251,0.280313 -0.40132,0.402034 -0.67557,0.48712 -0.199828,0.062 -0.626545,0.06187 -0.817562,-2.45e-4 z m 0.766681,-1.253422 c 0.232852,-0.123831 0.437473,-0.482847 0.534424,-0.93767 0.09746,-0.457228 0.128134,-0.867781 0.142407,-1.906131 0.02593,-1.886737 -0.100432,-2.782276 -0.454795,-3.223101 -0.158518,-0.197197 -0.3165,-0.273781 -0.563923,-0.273373 -0.436633,7.16e-4 -0.701858,0.279974 -0.862102,0.907697 -0.138056,0.540804 -0.207097,1.560742 -0.18225,2.692342 0.04194,1.910065 0.258577,2.626158 0.848088,2.803381 0.136688,0.04109 0.400307,0.01016 0.538151,-0.06315 z" id="path4" />
  <path style="fill:#f90000;fill-opacity:0;stroke:#b5b5ff;stroke-width:0.0116645;stroke-linecap:round;stroke-linejoin:round;stroke-dasharray:none" d="m 23.814536,27.451409 c -5.08e-4,-0.01346 0.919764,-3.410775 2.045197,-7.549606 l 2.046245,-7.525146 h 0.38598 c 0.212289,0 0.386391,0.01101 0.386894,0.02446 5.08e-4,0.01345 -0.919869,3.410775 -2.04527,7.549606 l -2.046188,7.525147 h -0.385905 c -0.212248,0 -0.386377,-0.011 -0.386953,-0.02446 z" id="path5" />
  <path style="fill:#f90000;fill-opacity:0.97126;stroke:#b5b5ff;stroke-width:0.0116645;stroke-linecap:round;stroke-linejoin:round;stroke-dasharray:none" d="m 28.948068,27.717471 c -0.807205,-0.258662 -1.274822,-1.208517 -1.446113,-2.937439 -0.0907,-0.915466 -0.07786,-2.313855 0.02929,-3.190574 0.180792,-1.479252 0.632651,-2.351044 1.362797,-2.629301 0.231327,-0.08816 0.648325,-0.09505 0.876512,-0.01448 0.672412,0.237407 1.077743,0.879475 1.311122,2.076894 0.193005,0.990264 0.234397,2.75774 0.09321,3.979844 -0.08224,0.711876 -0.249179,1.34913 -0.475541,1.815304 -0.124657,0.256726 -0.433623,0.621974 -0.632744,0.74801 -0.09053,0.0573 -0.242474,0.126344 -0.337663,0.153433 -0.216584,0.06163 -0.585752,0.06084 -0.780866,-0.0016 z m 0.768713,-1.268466 c 0.423371,-0.25017 0.611511,-0.950478 0.661584,-2.462588 0.01218,-0.367697 0.01176,-0.972196 -8.47e-4,-1.343331 -0.05065,-1.481645 -0.227991,-2.143287 -0.649658,-2.423749 -0.128446,-0.08543 -0.170984,-0.0964 -0.374515,-0.09653 -0.277622,-1.78e-4 -0.423382,0.07256 -0.594507,0.29669 -0.285811,0.374331 -0.410647,1.065883 -0.447516,2.479071 -0.02962,1.135247 0.05526,2.312914 0.204138,2.83257 0.10693,0.373231 0.3039,0.651385 0.533932,0.754008 0.147182,0.06566 0.530289,0.04491 0.667469,-0.03615 z" id="path6" />
  <path style="fill:#f90000;fill-opacity:0.97126;stroke:#b5b5ff;stroke-width:0.0116645;stroke-linecap:round;stroke-linejoin:round;stroke-dasharray:none" d="m 23.842595,27.429302 c 0,-0.0087 0.102434,-0.394328 0.22763,-0.856978 0.343185,-1.268195 2.150165,-7.924542 3.048037,-11.228004 l 0.793309,-2.918746 0.369676,-0.0091 c 0.203323,-0.005 0.369678,-0.0021 0.369678,0.0065 0,0.02493 -0.67651,2.520765 -3.266922,12.052603 l -0.802073,2.951358 -0.369667,0.0091 c -0.203318,0.005 -0.369668,0.002 -0.369668,-0.0067 z" id="path7" />
  <path style="fill:#f90000;fill-opacity:0.97126;stroke:#b5b5ff;stroke-width:0.0116645;stroke-linecap:round;stroke-linejoin:round;stroke-dasharray:none" d="m 22.728417,20.919744 c -0.545785,-0.163765 -1.030656,-0.854498 -1.246806,-1.776162 -0.248482,-1.059535 -0.313408,-3.143501 -0.137162,-4.402578 0.20394,-1.456914 0.673386,-2.321058 1.381954,-2.543867 0.229117,-0.07205 0.66407,-0.06414 0.878931,0.01598 0.739504,0.275748 1.185978,1.230413 1.357174,2.901948 0.05783,0.564657 0.05781,2.307517 -4.3e-5,2.871775 -0.08232,0.802979 -0.187455,1.272715 -0.404881,1.808975 -0.113376,0.279628 -0.184174,0.406723 -0.321076,0.576387 -0.360777,0.447108 -0.567071,0.556984 -1.06924,0.569492 -0.185715,0.0046 -0.383198,-0.0053 -0.438851,-0.02195 z m 0.778209,-1.230795 c 0.310441,-0.191199 0.507919,-0.661745 0.612094,-1.458495 0.04771,-0.364893 0.04787,-2.99665 1.7e-4,-3.359003 -0.08128,-0.617897 -0.197939,-0.991275 -0.387128,-1.23906 -0.157877,-0.206774 -0.292714,-0.284366 -0.526156,-0.302777 -0.821749,-0.06481 -1.11959,0.782499 -1.120205,3.186795 -5.42e-4,2.095691 0.190261,2.927176 0.735286,3.204328 0.160178,0.08145 0.529854,0.06432 0.685902,-0.03179 z" id="path8" />
  <path style="fill:none;fill-rule:evenodd;stroke:#5b36bf;stroke-width:1.28544;stroke-linecap:round;stroke-linejoin:round;stroke-dasharray:none;stroke-opacity:1;paint-order:fill markers stroke" d="M 11.189982,51.602131 32.046138,51.486962" id="path51" />
  <path style="fill:#f90000;fill-opacity:0;stroke:#b5b5ff;stroke-width:0.0165786;stroke-linecap:round;stroke-linejoin:round;stroke-dasharray:none" d="m 15.44854,27.61381 c -0.558534,-0.119668 -1.086438,-0.41326 -1.516672,-0.843497 -1.101967,-1.101966 -1.701025,-3.239267 -1.925449,-6.869557 -0.06941,-1.122857 -0.02787,-4.782454 0.06465,-5.69492 0.30844,-3.041936 0.852615,-4.762378 1.8403,-5.8182168 0.649375,-0.6941844 1.393745,-0.9910169 2.357169,-0.9399699 0.812877,0.04307 1.359081,0.2665662 1.903797,0.7789955 1.054794,0.9922745 1.654173,2.7444132 1.98045,5.7893612 0.07059,0.65877 0.0928,1.209066 0.111514,2.76309 0.03364,2.793108 -0.04707,4.269345 -0.326343,5.96912 -0.43572,2.651978 -1.313266,4.179186 -2.727662,4.746995 -0.460337,0.184801 -1.215491,0.235638 -1.761754,0.118599 z m 1.517472,-2.074982 c 1.037113,-0.485324 1.591505,-2.085424 1.755151,-5.06576 0.05668,-1.032264 0.02611,-5.858286 -0.04131,-6.520339 -0.217187,-2.132973 -0.496758,-3.153201 -1.053401,-3.844154 -0.398669,-0.4948608 -0.851068,-0.7077271 -1.503626,-0.707498 -1.138188,3.969e-4 -1.815427,0.720851 -2.235539,2.378181 -0.247853,0.977773 -0.33808,1.90602 -0.404423,4.160641 -0.0683,2.320943 -0.01046,4.568705 0.153476,5.964625 0.238872,2.034036 0.777779,3.229278 1.637375,3.631531 0.494647,0.231473 1.201101,0.232631 1.692297,0.0028 z" id="path3" />
  <path style="fill:#f90000;fill-opacity:0.97126;stroke:#b5b5ff;stroke-width:0.0165786;stroke-linecap:round;stroke-linejoin:round;stroke-dasharray:none" d="m 15.352093,27.556623 c -1.969894,-0.516141 -2.969852,-2.74382 -3.298088,-7.347388 -0.05426,-0.760992 -0.05605,-3.918677 -0.0029,-5.099367 0.0839,-1.86358 0.428544,-3.848761 0.863861,-4.975942 0.567229,-1.4687407 1.439787,-2.3712733 2.511809,-2.5980939 0.463225,-0.09801 1.216846,-0.059677 1.669599,0.084926 1.185202,0.3785338 2.05473,1.5954951 2.549993,3.5688799 0.292635,1.166012 0.484458,2.557115 0.552608,4.007536 0.06261,1.332568 0.02297,4.848661 -0.06507,5.771294 -0.302849,3.17373 -0.98395,5.102698 -2.125186,6.018806 -0.321407,0.258006 -0.848399,0.51525 -1.210942,0.591106 -0.415799,0.087 -1.06808,0.07718 -1.445687,-0.02175 z m 1.176275,-1.855709 c 0.985018,-0.183833 1.633085,-1.139589 1.954699,-2.882751 0.246367,-1.335317 0.25527,-1.520792 0.254437,-5.300836 -7.41e-4,-3.394383 -0.0032,-3.497918 -0.09788,-4.197367 C 18.519901,12.435836 18.408208,11.845856 18.270753,11.371525 17.988511,10.397569 17.498832,9.7492642 16.849208,9.489487 16.524211,9.3595245 15.714966,9.3625 15.384593,9.494867 c -1.086604,0.4353752 -1.65702,1.861986 -1.858332,4.647687 -0.07128,0.986342 -0.100321,5.031362 -0.04377,6.095674 0.14595,2.746608 0.516445,4.176775 1.286444,4.96587 0.414365,0.424641 1.103485,0.619229 1.759425,0.496811 z" id="path9" />
  <path style="fill:#f90000;fill-opacity:0;stroke:#b5b5ff;stroke-width:0.0165786;stroke-linecap:round;stroke-linejoin:round;stroke-dasharray:none" d="m 15.532242,27.665737 c -2.228931,-0.441327 -3.292428,-2.818684 -3.567975,-7.975904 -0.05605,-1.049081 -0.02981,-4.176287 0.04249,-5.062151 0.157553,-1.930665 0.432664,-3.417429 0.828538,-4.477612 0.713837,-1.9117115 1.877028,-2.8355095 3.454548,-2.7435774 0.987929,0.057573 1.725971,0.4526283 2.32035,1.2420248 0.877877,1.1659138 1.384038,3.0371696 1.634433,6.0424416 0.07363,0.883668 0.07344,4.891534 -2.6e-4,5.758197 -0.24622,2.895188 -0.68273,4.628536 -1.455402,5.779289 -0.480729,0.715956 -1.139272,1.207729 -1.864627,1.392424 -0.366859,0.09341 -1.037712,0.115033 -1.392091,0.04487 z m 1.089223,-2.027676 c 0.366403,-0.09544 0.572017,-0.217625 0.860294,-0.511243 0.65055,-0.662602 1.01741,-1.969251 1.19488,-4.255817 0.07179,-0.925001 0.100416,-4.574076 0.045,-5.737104 -0.153306,-3.217482 -0.593208,-4.758558 -1.547696,-5.4219248 -0.569836,-0.3960339 -1.529881,-0.3949909 -2.107308,0.0023 -0.779697,0.5364468 -1.263988,1.8452618 -1.451257,3.9220828 -0.128771,1.428084 -0.172523,4.785034 -0.08632,6.622981 0.15994,3.41003 0.801051,5.062994 2.087551,5.382288 0.293125,0.07275 0.717671,0.07125 1.004854,-0.0036 z" id="path2" />
</svg>