<?xml version="1.0" encoding="UTF-8" standalone="no"?>
<!-- Created with Inkscape (http://www.inkscape.org/) -->

<svg
   width="200"
   height="200"
   viewBox="0 0 52.916664 52.916666"
   version="1.1"
   id="svg1"
   inkscape:version="1.4 (86a8ad7, 2024-10-11)"
   sodipodi:docname="Стакан 50%.svg"
   inkscape:export-filename="Pictures\Стакан 75%.png"
   inkscape:export-xdpi="25.4"
   inkscape:export-ydpi="25.4"
   xmlns:inkscape="http://www.inkscape.org/namespaces/inkscape"
   xmlns:sodipodi="http://sodipodi.sourceforge.net/DTD/sodipodi-0.dtd"
   xmlns="http://www.w3.org/2000/svg"
   xmlns:svg="http://www.w3.org/2000/svg">
  <sodipodi:namedview
     id="namedview1"
     pagecolor="#ffffff"
     bordercolor="#000000"
     borderopacity="0"
     inkscape:showpageshadow="2"
     inkscape:pageopacity="0.0"
     inkscape:pagecheckerboard="false"
     inkscape:deskcolor="#aaaaaa"
     inkscape:document-units="px"
     inkscape:zoom="4.4699704"
     inkscape:cx="68.0094"
     inkscape:cy="87.696331"
     inkscape:window-width="3840"
     inkscape:window-height="2036"
     inkscape:window-x="4468"
     inkscape:window-y="1878"
     inkscape:window-maximized="1"
     inkscape:current-layer="layer2">
    <inkscape:page
       x="0"
       y="0"
       width="52.916664"
       height="52.916664"
       id="page2"
       margin="0"
       bleed="0" />
  </sodipodi:namedview>
  <defs
     id="defs1">
    <inkscape:path-effect
       effect="bspline"
       id="path-effect56"
       is_visible="true"
       lpeversion="1.3"
       weight="33.333333"
       steps="2"
       helper_size="0"
       apply_no_weight="true"
       apply_with_weight="true"
       only_selected="false"
       uniform="false" />
    <rect
       x="349.10745"
       y="412.5307"
       width="48.098755"
       height="26.062813"
       id="rect46-7" />
  </defs>
  <g
     inkscape:label="Слой 1"
     inkscape:groupmode="layer"
     id="layer1">
    <g
       id="g3"
       transform="matrix(1.1110146,0,0,1.0965324,-84.08098,-89.202811)">
      <path
         style="fill:#3a00af;fill-opacity:1;fill-rule:evenodd;stroke:#5b36c1;stroke-width:0.835;stroke-linecap:butt;stroke-linejoin:miter;stroke-dasharray:none;stroke-opacity:1"
         d="m 80.463316,81.733862 9.486291,46.959518"
         id="path1"
         inkscape:connector-type="polyline"
         inkscape:connector-curvature="0" />
      <path
         style="fill:#3a00af;fill-opacity:1;fill-rule:evenodd;stroke:#5b36c1;stroke-width:0.835;stroke-linecap:butt;stroke-linejoin:miter;stroke-dasharray:none;stroke-opacity:1"
         d="m 118.52473,81.776796 -9.48634,46.959524"
         id="path1-8"
         inkscape:connector-type="polyline"
         inkscape:connector-curvature="0" />
      <path
         style="fill:none;fill-rule:evenodd;stroke:#5b36bf;stroke-width:1.16461;stroke-linecap:round;stroke-linejoin:round;stroke-dasharray:none;stroke-opacity:1;paint-order:fill markers stroke"
         d="M 90.128829,128.70897 108.901,128.60394"
         id="path3"
         inkscape:connector-type="polyline"
         inkscape:connector-curvature="0" />
    </g>
    <g
       id="g51"
       transform="matrix(1.1110146,0,0,1.0965324,-84.08098,-89.202811)">
      <path
         style="fill:#3a00af;fill-opacity:1;fill-rule:evenodd;stroke:#5b36c1;stroke-width:0.835;stroke-linecap:butt;stroke-linejoin:miter;stroke-dasharray:none;stroke-opacity:1"
         d="m 80.463316,81.733862 9.486291,46.959518"
         id="path49"
         inkscape:connector-type="polyline"
         inkscape:connector-curvature="0" />
      <path
         style="fill:#3a00af;fill-opacity:1;fill-rule:evenodd;stroke:#5b36c1;stroke-width:0.835;stroke-linecap:butt;stroke-linejoin:miter;stroke-dasharray:none;stroke-opacity:1"
         d="m 118.52473,81.776796 -9.48634,46.959524"
         id="path50"
         inkscape:connector-type="polyline"
         inkscape:connector-curvature="0" />
      <path
         style="fill:none;fill-rule:evenodd;stroke:#5b36bf;stroke-width:1.16461;stroke-linecap:round;stroke-linejoin:round;stroke-dasharray:none;stroke-opacity:1;paint-order:fill markers stroke"
         d="M 90.128829,128.70897 108.901,128.60394"
         id="path51"
         inkscape:connector-type="polyline"
         inkscape:connector-curvature="0" />
    </g>
    <path
       style="fill:#abaaff;fill-opacity:0;stroke:#a8a8ff;stroke-width:0.3;stroke-linecap:round;stroke-linejoin:round;stroke-dasharray:none;stroke-opacity:1;paint-order:markers fill stroke"
       d="m 85.383313,104.30158 c 0.488306,-0.22323 0.976606,-0.44645 1.325402,-0.6069 0.348797,-0.16045 0.558053,-0.2581 0.718495,-0.34878 0.160442,-0.0907 0.27206,-0.1744 0.39762,-0.24415 0.125561,-0.0698 0.26508,-0.12556 0.3767,-0.1744 0.11162,-0.0488 0.195308,-0.0907 0.432485,-0.15346 0.237178,-0.0628 0.627824,-0.14649 0.8301,-0.19531 0.202276,-0.0488 0.216247,-0.0628 0.279036,-0.0838 0.06279,-0.0209 0.174401,-0.0488 0.265087,-0.0628 0.09069,-0.0139 0.160444,-0.0139 0.313905,-0.0349 0.153462,-0.0209 0.390645,-0.0628 0.578992,-0.0837 0.188347,-0.0209 0.327862,-0.0209 0.59294,-0.0209 0.265078,0 0.655722,0 1.081243,0 0.425522,0 0.885921,0 1.178899,0.007 0.292979,0.007 0.418546,0.0209 0.572016,0.0279 0.153469,0.007 0.334838,0.007 0.634799,0.0419 0.299961,0.0349 0.7185,0.10464 0.969629,0.13952 0.251128,0.0349 0.334835,0.0349 0.44644,0.0558 0.111604,0.0209 0.251132,0.0628 0.411575,0.0977 0.160443,0.0349 0.341815,0.0628 0.613874,0.12556 0.272058,0.0628 0.634789,0.16044 0.837083,0.20927 0.202295,0.0488 0.244155,0.0488 0.272037,0.0558 0.02788,0.007 0.04185,0.021 0.06279,0.028 0.02093,0.007 0.04884,0.007 0.0907,0.0209 0.04185,0.014 0.09766,0.0418 0.139512,0.0558 0.04185,0.0139 0.06976,0.0139 0.104639,0.0279 0.03487,0.0139 0.07673,0.0418 0.11161,0.0558 0.03488,0.014 0.06279,0.014 0.09765,0.0209 0.03487,0.007 0.07673,0.0209 0.174399,0.0558 0.09766,0.0349 0.251134,0.0907 0.355772,0.13255 0.104638,0.0418 0.160441,0.0697 0.244145,0.0907 0.0837,0.0209 0.195325,0.0349 0.292965,0.0628 0.0977,0.0279 0.18139,0.0698 0.36276,0.11162 0.18138,0.0419 0.4604,0.0837 0.62082,0.11858 0.16043,0.0349 0.20231,0.0628 0.35578,0.0977 0.15346,0.0349 0.41855,0.0767 0.59293,0.11858 0.17438,0.0418 0.25812,0.0837 0.46739,0.10464 0.20927,0.0209 0.54411,0.0209 0.78826,0.0279 0.24414,0.007 0.39762,0.0209 0.56504,0.0279 0.16742,0.007 0.34879,0.007 0.56504,0.0209 0.21624,0.0139 0.46737,0.0418 0.78825,0.0628 0.32089,0.0209 0.71153,0.0348 1.10915,0.0418 0.39762,0.007 0.80221,0.007 1.05336,-0.007 0.25115,-0.0139 0.34877,-0.0418 0.54408,-0.0907 0.19532,-0.0488 0.48831,-0.11858 0.71153,-0.16741 0.22323,-0.0488 0.3767,-0.0767 0.46738,-0.0976 0.0907,-0.0209 0.1186,-0.0349 0.15345,-0.0488 0.0349,-0.0139 0.0767,-0.0279 0.13256,-0.0419 0.0558,-0.014 0.12554,-0.0279 0.19533,-0.0559 0.0698,-0.0279 0.13949,-0.0697 0.23018,-0.0977 0.0907,-0.0279 0.2023,-0.0418 0.31391,-0.0627 0.11161,-0.0209 0.22322,-0.0488 0.36273,-0.0697 0.13951,-0.0209 0.30694,-0.0349 0.3976,-0.0488 0.0907,-0.0139 0.10466,-0.0279 0.15351,-0.0419 0.0488,-0.014 0.13257,-0.0279 0.17442,-0.0418 0.0419,-0.0139 0.0419,-0.0279 0.0558,-0.0349 0.0139,-0.007 0.0418,-0.007 0.0767,-0.021 0.0349,-0.014 0.0767,-0.0418 0.12554,-0.0628 0.0488,-0.0209 0.10466,-0.0349 0.17441,-0.0697 0.0697,-0.0349 0.15346,-0.0907 0.20926,-0.11859 0.0558,-0.0279 0.0837,-0.0279 0.16044,-0.0558 0.0767,-0.0279 0.2023,-0.0837 0.39065,-0.16045 0.18835,-0.0767 0.43947,-0.17439 0.56503,-0.23017 0.12556,-0.0558 0.12556,-0.0698 0.15345,-0.0838 0.0279,-0.014 0.0837,-0.028 0.11163,-0.0419 0.0279,-0.0139 0.0279,-0.0279 0.0488,-0.0419 0.0209,-0.0139 0.0627,-0.0279 0.0976,-0.0488 0.0349,-0.0209 0.0628,-0.0488 0.0907,-0.0628 0.0279,-0.0139 0.0558,-0.0139 0.0767,-0.0279 0.0209,-0.0139 0.0349,-0.0418 0.0768,-0.0558 0.0419,-0.014 0.1116,-0.014 0.18136,-0.014"
       id="path52"
       transform="matrix(1.4106151,0.02269462,0,1.0818156,-113.96645,-111.7887)"
       inkscape:original-d="m 85.383313,104.30158 c 0.488305,-0.22323 0.976607,-0.44645 1.464911,-0.66968 0.209272,-0.0977 0.418544,-0.19532 0.627819,-0.29298 0.111612,-0.0837 0.223224,-0.16742 0.334836,-0.25112 0.139514,-0.0558 0.279029,-0.11162 0.418544,-0.16742 0.08371,-0.0419 0.16742,-0.0837 0.251129,-0.12557 0.390642,-0.0837 0.781286,-0.16742 1.171927,-0.25112 0.01394,-0.0139 0.0279,-0.0279 0.04185,-0.0419 0.111611,-0.0279 0.223223,-0.0558 0.334835,-0.0837 0.06976,0 0.139518,0 0.209275,0 0.237175,-0.0418 0.47435,-0.0837 0.711528,-0.12556 0.139515,0 0.27903,0 0.418544,0 0.390642,0 0.781286,0 1.171927,0 0.460402,0 0.920801,0 1.381202,0 0.125563,0.0139 0.251127,0.0279 0.37669,0.0419 0.181372,0 0.362741,0 0.54411,0 0.418547,0.0698 0.837092,0.13952 1.255639,0.20928 0.08371,0 0.167417,0 0.251126,0 0.139515,0.0418 0.27903,0.0837 0.418545,0.12556 0.181369,0.0279 0.362741,0.0558 0.54411,0.0837 0.362738,0.0977 0.725479,0.19532 1.088218,0.29298 0.04185,0 0.08371,0 0.125563,0 0.01394,0.0139 0.0279,0.0279 0.04185,0.0419 0.0279,0 0.05581,0 0.08371,0 0.05581,0.0279 0.111614,0.0558 0.16742,0.0837 0.0279,0 0.05581,0 0.08371,0 0.04185,0.0279 0.08371,0.0558 0.125563,0.0837 0.0279,0 0.05581,0 0.08371,0 0.04185,0.0139 0.08371,0.0279 0.125563,0.0419 0.153467,0.0558 0.306936,0.11161 0.460402,0.16742 0.05581,0.0279 0.111612,0.0558 0.167418,0.0837 0.111611,0.0139 0.223223,0.0279 0.334833,0.0419 0.0837,0.0418 0.16742,0.0837 0.25113,0.12556 0.27903,0.0419 0.55806,0.0837 0.83709,0.12557 0.0418,0.0279 0.0837,0.0558 0.12556,0.0837 0.26508,0.0418 0.53016,0.0837 0.79524,0.12556 0.0837,0.0418 0.16742,0.0837 0.25113,0.12556 0.33483,0 0.66967,0 1.00451,0 0.15346,0.0139 0.30693,0.0279 0.4604,0.0419 0.18137,0 0.36274,0 0.5441,0 0.25113,0.0279 0.50226,0.0558 0.75339,0.0837 0.39064,0.0139 0.78128,0.0279 1.17192,0.0418 0.4046,0 0.80919,0 1.21379,0 0.0977,-0.0279 0.19532,-0.0558 0.29298,-0.0837 0.29298,-0.0697 0.58596,-0.13951 0.87895,-0.20927 0.15346,-0.0279 0.30693,-0.0558 0.4604,-0.0837 0.0279,-0.0139 0.0558,-0.0279 0.0837,-0.0418 0.0418,-0.014 0.0837,-0.0279 0.12556,-0.0419 0.0698,-0.0139 0.13951,-0.0279 0.20927,-0.0419 0.0698,-0.0419 0.13952,-0.0837 0.20927,-0.12557 0.11162,-0.0139 0.22323,-0.0279 0.33484,-0.0418 0.11161,-0.0279 0.22322,-0.0558 0.33484,-0.0837 0.16741,-0.0139 0.33483,-0.0279 0.50225,-0.0419 0.0139,-0.0139 0.0279,-0.0279 0.0419,-0.0419 0.0837,-0.0139 0.16741,-0.0279 0.25112,-0.0418 0,-0.0139 0,-0.0279 0,-0.0419 0.0279,0 0.0558,0 0.0837,0 0.0419,-0.0279 0.0837,-0.0558 0.12557,-0.0837 0.0558,-0.0139 0.11161,-0.0279 0.16742,-0.0418 0.0837,-0.0558 0.16741,-0.11161 0.25112,-0.16742 0.0279,0 0.0558,0 0.0837,0 0.12557,-0.0558 0.25113,-0.11161 0.37669,-0.16742 0.25113,-0.0977 0.50226,-0.19532 0.75338,-0.29298 0,-0.0139 0,-0.0279 0,-0.0419 0.0558,-0.0139 0.11162,-0.0279 0.16742,-0.0419 0,-0.0139 0,-0.0279 0,-0.0418 0.0419,-0.0139 0.0837,-0.0279 0.12557,-0.0419 0.0279,-0.0279 0.0558,-0.0558 0.0837,-0.0837 0.0279,0 0.0558,0 0.0837,0 0.0139,-0.0279 0.0279,-0.0558 0.0419,-0.0837 0.0698,0 0.13951,0 0.20927,0"
       inkscape:path-effect="#path-effect56" />
    <path
       style="fill:#a8a8ff;fill-opacity:1;stroke:#a8a8ff;stroke-width:0.670088;stroke-linecap:round;stroke-linejoin:miter;stroke-dasharray:none;stroke-dashoffset:0;stroke-opacity:0.96;paint-order:normal"
       d="M 61.253349,193.59748 C 61.210402,193.4566 33.891469,60.043434 33.38161,57.484669 c -0.06538,-0.328114 -0.05271,-0.343451 0.249139,-0.301598 0.430337,0.05967 8.758638,-3.295316 10.760059,-4.334596 1.987973,-1.032297 3.761063,-1.6905 5.685331,-2.1105 0.872235,-0.190378 1.639857,-0.346142 1.705827,-0.346142 0.08414,0 0.119944,2.191117 0.119944,7.33927 v 7.33927 l 5.229341,-0.06928 c 2.876138,-0.03811 6.374483,-0.09943 7.774101,-0.136284 1.61674,-0.04257 2.54476,-0.0274 2.54476,0.04158 0,0.05972 -3.172402,11.221593 -7.049782,24.804164 -3.87738,13.582567 -7.035958,24.703187 -7.019062,24.712487 0.102323,0.0563 9.24628,-0.0845 9.335222,-0.14378 0.06001,-0.04 3.296208,-11.5241 7.191544,-25.520279 l 7.08243,-25.447596 -0.07025,-6.700228 c -0.03864,-3.685125 -0.08766,-6.717633 -0.108931,-6.738905 -0.02127,-0.02127 -5.068303,0.03594 -11.215625,0.127146 -6.147321,0.0912 -11.478964,0.164071 -11.848094,0.161929 l -0.671145,-0.0039 1.006718,-0.270536 c 0.553695,-0.148795 2.08894,-0.410654 3.411655,-0.581908 l 2.404938,-0.311372 7.550386,0.0059 c 4.310628,0.0034 8.342326,0.05946 9.396035,0.13074 2.367702,0.160167 5.148285,0.495361 5.07624,0.611932 -0.03072,0.0497 -0.46173,0.09037 -0.957803,0.09037 h -0.901951 l 0.08091,18.931893 c 0.0445,10.412541 0.113585,18.964399 0.153515,19.004127 0.03993,0.03973 0.90314,-0.254023 1.918247,-0.652781 3.449208,-1.354932 5.614976,-1.80905 7.588007,-1.591052 2.442929,0.269916 3.728992,1.295599 4.344218,3.46467 0.172092,0.606734 0.203338,1.12619 0.19809,3.293089 -0.0054,2.232955 -0.03853,2.713064 -0.250842,3.635371 -0.64048,2.782397 -2.00847,4.21476 -4.143368,4.33835 -2.100205,0.12158 -4.289168,-0.989134 -6.65109,-3.374863 l -1.208066,-1.22024 -1.51416,0.06349 c -0.832788,0.03492 -1.525253,0.0801 -1.538809,0.100412 -0.01356,0.02031 -0.0024,3.333929 0.02468,7.363591 l 0.04933,7.32667 0.963749,0.79194 c 2.760673,2.26853 5.574979,3.48947 8.584767,3.72437 3.501447,0.27327 6.052658,-0.68603 8.402041,-3.15932 2.993424,-3.1513 4.795434,-7.82923 5.693424,-14.77989 0.28322,-2.192183 0.28458,-8.012544 0.002,-10.346825 -0.96675,-7.997847 -3.952412,-13.325372 -8.483794,-15.13821 -1.242859,-0.497222 -2.066982,-0.647493 -3.90749,-0.712496 l -1.746281,-0.06167 -0.07073,-0.908522 c -0.0389,-0.499686 -0.07104,-1.895813 -0.07141,-3.102505 l -6.7e-4,-2.193982 0.518971,-0.07113 c 0.285435,-0.03912 1.736951,-0.07113 3.225593,-0.07113 1.488642,0 4.459486,-0.03347 6.601877,-0.07438 l 3.895254,-0.07439 -0.0755,-5.071063 c -0.0415,-2.789084 -0.053,-5.071063 -0.0255,-5.071063 0.0275,0 0.61974,0.146453 1.31601,0.32545 0.69628,0.178997 1.50039,0.360188 1.78692,0.402648 l 0.52096,0.0772 -0.15062,0.360477 c -0.47742,1.142629 -1.17317,4.426709 -1.45925,6.887972 -0.24005,2.065162 -0.33663,8.204946 -0.17028,10.824709 0.55437,8.730587 2.78567,14.166698 6.57276,16.013214 2.14322,1.044991 4.7954,0.847518 6.77396,-0.504368 0.77704,-0.530931 1.69374,-1.452665 2.18895,-2.200971 0.15408,-0.23283 0.30069,-0.402777 0.32581,-0.37766 0.0251,0.02512 -1.64334,6.21194 -3.70767,13.748496 -2.06434,7.536559 -3.75334,13.741149 -3.75334,13.787979 0,0.0841 8.2511,0.003 8.33605,-0.0819 0.0242,-0.0242 1.55781,-5.57878 3.40812,-12.34361 1.85031,-6.76483 3.40697,-12.425527 3.45925,-12.579331 0.0538,-0.158171 0.0701,1.275207 0.0377,3.299798 -0.16986,10.598293 1.42859,17.278953 4.93008,20.605023 2.84411,2.70163 7.14532,2.53183 9.81332,-0.3874 2.2814,-2.49621 3.62445,-6.36084 4.26609,-12.275736 0.22727,-2.095008 0.19002,-10.258599 -0.0568,-12.442835 -0.77627,-6.870416 -2.65634,-11.35519 -5.57312,-13.294263 -1.26491,-0.840915 -2.13092,-1.096914 -3.7324,-1.103336 -1.13018,-0.0045 -1.47397,0.03774 -2.1756,0.267508 -1.42395,0.466312 -3.00261,1.704125 -3.89694,3.055559 -0.15408,0.23283 -0.29741,0.406063 -0.31852,0.384962 -0.0211,-0.0211 1.144,-4.357089 2.5891,-9.635528 1.4451,-5.278439 2.62746,-9.609125 2.62746,-9.623747 0,-0.01462 0.54111,-0.05473 1.20247,-0.08912 1.85764,-0.09661 9.7199,-1.715382 11.0687,-2.278948 0.44176,-0.184578 2.93929,-0.636387 4.22782,-0.764821 1.88731,-0.188118 3.07521,-0.532832 5.92845,-1.72036 0.30761,-0.128027 1.71701,-0.641562 3.13201,-1.141189 1.415,-0.499626 3.17676,-1.201265 3.91502,-1.559199 1.17877,-0.571511 2.2908,-0.90477 2.29423,-0.687549 0.004,0.248443 -29.46823,144.052562 -29.53936,144.132082 -0.0493,0.0551 -15.73617,0.18803 -35.75053,0.30299 -45.541995,0.2616 -41.729903,0.25992 -41.80355,0.0183 z"
       id="path57"
       transform="scale(0.26458332)" />
    <path
       style="fill:#a8a8ff;fill-opacity:1;stroke:#a8a8ff;stroke-width:0.670088;stroke-linecap:round;stroke-linejoin:miter;stroke-dasharray:none;stroke-dashoffset:0;stroke-opacity:0.96;paint-order:normal"
       d="m 136.97769,100.80194 c -0.56859,-0.5686 -0.77995,-2.623754 -0.77839,-7.568659 0.001,-4.00578 0.13146,-5.710675 0.49742,-6.513875 0.15335,-0.336568 0.53544,-0.533152 1.03625,-0.533152 0.78386,0 1.0568,0.527942 1.33008,2.572724 0.1973,1.4762 0.19263,9.012654 -0.006,10.234967 -0.22454,1.379435 -0.35288,1.727805 -0.70329,1.909015 -0.47867,0.24753 -1.07065,0.20406 -1.37574,-0.10102 z"
       id="path58"
       transform="scale(0.26458332)" />
    <path
       style="fill:#a8a8ff;fill-opacity:1;stroke:#a8a8ff;stroke-width:0.670088;stroke-linecap:round;stroke-linejoin:miter;stroke-dasharray:none;stroke-dashoffset:0;stroke-opacity:0.96;paint-order:normal"
       d="m 123.54668,69.679403 c 0,-3.159832 -0.0499,-5.280176 -0.14593,-6.200235 -0.2121,-2.032125 -0.54679,-4.160722 -0.85405,-5.431703 -0.14774,-0.6111 -0.24731,-1.132391 -0.22128,-1.158424 0.0409,-0.04092 5.90567,0.320608 5.92733,0.365383 0.004,0.0092 -1.03732,3.81701 -2.31501,8.461896 -1.27769,4.644885 -2.33837,8.517213 -2.35707,8.605172 -0.0187,0.08796 -0.034,-2.000981 -0.034,-4.642089 z"
       id="path59"
       transform="scale(0.26458332)" />
    <path
       style="fill:#a8a8ff;fill-opacity:1;stroke:#a8a8ff;stroke-width:0.670088;stroke-linecap:round;stroke-linejoin:miter;stroke-dasharray:none;stroke-dashoffset:0;stroke-opacity:0.96;paint-order:normal"
       d="m 113.28488,76.233832 c -0.60167,-0.473271 -0.81148,-2.410949 -0.81183,-7.497358 -3.4e-4,-5.076092 0.19234,-6.656869 0.85304,-6.998533 0.42168,-0.218058 1.0286,-0.201775 1.31953,0.0354 0.601,0.489961 0.83947,2.66537 0.8369,7.634279 -0.002,4.006236 -0.13264,5.708214 -0.49972,6.513876 -0.24726,0.542665 -1.18565,0.715287 -1.69792,0.312336 z"
       id="path60"
       transform="scale(0.26458332)" />
    <path
       style="fill:#a8a8ff;fill-opacity:1;stroke:#a8a8ff;stroke-width:0.167522;stroke-linecap:round;stroke-linejoin:miter;stroke-dasharray:none;stroke-dashoffset:0;stroke-opacity:0.96;paint-order:normal"
       d="m 82.271239,49.752636 c 0,-0.09063 0.02959,-0.09169 0.531324,-0.01905 l 0.349555,0.05061 -0.268551,0.0032 c -0.147703,0.0018 -0.345901,0.01128 -0.440439,0.02117 -0.171709,0.01795 -0.171889,0.01789 -0.171889,-0.05593 z"
       id="path62"
       transform="scale(0.26458332)" />
    <path
       style="fill:#a8a8ff;fill-opacity:1;stroke:#a8a8ff;stroke-width:0.167522;stroke-linecap:round;stroke-linejoin:miter;stroke-dasharray:none;stroke-dashoffset:0;stroke-opacity:0.96;paint-order:normal"
       d="m 83.215037,49.800043 c 0.01923,-0.0078 0.05069,-0.0078 0.06991,0 0.01923,0.0078 0.0035,0.01411 -0.03495,0.01411 -0.03845,0 -0.05418,-0.0063 -0.03496,-0.01411 z"
       id="path63"
       transform="scale(0.26458332)" />
    <path
       style="fill:#a8a8ff;fill-opacity:1;stroke:#a8a8ff;stroke-width:0.947648;stroke-linecap:round;stroke-linejoin:miter;stroke-dasharray:none;stroke-dashoffset:0;stroke-opacity:0.96;paint-order:normal"
       d="m 127.87092,56.861116 c -0.18836,-0.07132 -1.55354,-0.180049 -3.03374,-0.241617 l -2.69126,-0.111942 -0.10232,-0.412254 c -0.0563,-0.226739 -0.31498,-0.946145 -0.57489,-1.598681 -1.03374,-2.595344 -2.78474,-4.716163 -4.64504,-5.626082 -0.88938,-0.435019 -1.06867,-0.464251 -2.84743,-0.464251 -1.71967,0 -1.98014,0.03891 -2.76833,0.413579 -1.74206,0.828097 -3.03504,2.195328 -4.19438,4.43525 l -0.70838,1.368639 -1.38474,-0.307679 c -0.7616,-0.169224 -1.5805,-0.3491 -1.81976,-0.399722 l -0.43502,-0.09204 V 51.61172 49.399125 l -3.677934,0.09906 c -6.969997,0.187723 -16.50414,0.186415 -16.743131,-0.0023 -0.338246,-0.267085 -0.836183,-0.353068 -3.550512,-0.613099 -1.877968,-0.179906 -4.598806,-0.2386 -10.974384,-0.23674 -7.56515,0.0022 -8.712359,0.03586 -10.661547,0.312734 -1.924846,0.273416 -2.761514,0.435362 -3.787476,0.733106 -0.152258,0.04419 -0.276833,0.18931 -0.276833,0.322497 0,0.201286 -0.153526,0.22477 -0.909596,0.139133 -0.726736,-0.08231 -1.275314,-0.0097 -2.728785,0.361409 -1.756869,0.44852 -2.468666,0.730023 -6.564906,2.596287 -3.975804,1.811393 -9.258471,3.806669 -9.483282,3.581856 -0.04461,-0.04461 -2.135095,-10.113749 -4.645512,-22.375854 L 24.097338,12.022477 24.66436,11.914861 c 1.036222,-0.196665 10.437628,-3.4452522 12.000649,-4.1467362 2.294313,-1.029688 4.257748,-1.6035817 7.07466,-2.0678572 1.392077,-0.2294381 3.242905,-0.5511998 4.112953,-0.715026 0.870048,-0.1638262 2.685283,-0.37835 4.033857,-0.4767197 1.348574,-0.09837 2.566628,-0.2005653 2.706788,-0.2271016 0.498313,-0.094345 15.291457,0.2246813 17.835044,0.3846275 3.560216,0.2238739 9.710626,1.0040004 13.785504,1.7485726 4.479106,0.8184339 8.53267,1.661698 9.80781,2.0403227 3.304552,0.9812129 5.561045,1.6056449 6.313225,1.7470389 0.4706,0.08847 1.14687,0.240077 1.50281,0.336918 0.35593,0.09684 1.78613,0.384739 3.1782,0.639775 1.39208,0.255036 3.49206,0.642792 4.66662,0.86168 1.17457,0.218889 2.66947,0.493122 3.322,0.609407 0.65254,0.116285 3.10845,0.291932 5.45757,0.390328 2.34913,0.0984 5.69486,0.283732 7.43496,0.411858 7.4921,0.551658 14.00181,0.677963 16.37271,0.317673 5.99764,-0.91142 8.01715,-1.257787 9.33324,-1.600749 0.82655,-0.215391 2.64178,-0.535113 4.03386,-0.710494 4.64227,-0.584856 5.05219,-0.660991 6.88129,-1.27808 1.00055,-0.3375609 3.15699,-1.0061779 4.79207,-1.4858159 3.18375,-0.9339222 3.81747,-1.1506963 5.17393,-1.7698309 0.47852,-0.2184155 1.15479,-0.433969 1.50281,-0.4790078 0.34801,-0.045039 0.76407,-0.149518 0.92456,-0.2321761 0.24098,-0.1241138 0.27662,-0.09971 0.20462,0.1401227 -0.0803,0.2676354 -8.64323,42.074818 -8.64323,42.199442 0,0.03043 -0.25134,0.102483 -0.55853,0.160111 -0.30719,0.05763 -1.14362,0.358008 -1.85874,0.667506 -1.49303,0.646175 -8.74294,3.411074 -10.15888,3.874292 -0.52202,0.170781 -2.11104,0.482274 -3.53114,0.69221 -1.4201,0.209936 -3.34211,0.599827 -4.27114,0.866423 -2.09802,0.602053 -8.18899,1.838212 -9.99415,2.028306 -0.73954,0.07788 -1.35225,0.133744 -1.36157,0.124145 -0.009,-0.0096 0.42344,-1.619309 0.96171,-3.577138 0.53827,-1.957829 1.02776,-3.755268 1.08776,-3.99431 l 0.10908,-0.434622 -2.6527,0.01858 c -1.45899,0.01022 -3.36203,0.06361 -4.22899,0.118643 l -1.57629,0.100062 -1.06217,3.851257 c -0.5842,2.118191 -1.08503,3.87174 -1.11296,3.896775 -0.0279,0.02504 -0.20488,-0.01284 -0.39324,-0.08416 z"
       id="path64"
       transform="scale(0.26458332)" />
    <path
       style="fill:#a8a8ff;fill-opacity:1;stroke:#a8a8ff;stroke-width:0.754642;stroke-linecap:round;stroke-linejoin:round;stroke-dasharray:none;stroke-dashoffset:0;stroke-opacity:0.96;paint-order:normal"
       d="m 53.957808,113.84304 c 0.03164,-0.10767 0.510144,-1.8065 1.063331,-3.7752 0.553187,-1.96869 2.900057,-10.223777 5.215268,-18.344637 5.660068,-19.853319 7.549277,-26.557741 7.549277,-26.790853 0,-0.473278 -0.05691,-0.477057 -6.068132,-0.402918 -3.153062,0.03889 -6.575967,0.101101 -7.606455,0.138249 l -1.873614,0.06754 V 57.74306 50.7509 l 0.475395,-0.07372 c 0.261467,-0.04054 4.502267,-0.140062 9.423999,-0.22115 4.921733,-0.08109 10.138871,-0.185906 11.59364,-0.232928 l 2.645035,-0.08549 0.06384,1.049935 c 0.03511,0.577463 0.08899,3.516393 0.119727,6.530955 l 0.05589,5.48102 -2.800513,10.067181 c -3.666375,13.179753 -8.903334,31.917677 -10.231829,36.609647 -0.579856,2.04794 -1.054285,3.78909 -1.054285,3.86924 0,0.15872 -3.078834,0.29239 -6.746956,0.29292 -1.738992,2.6e-4 -1.876804,-0.0145 -1.823615,-0.19547 z"
       id="path89"
       transform="scale(0.26458332)" />
    <path
       style="fill:#a8a8ff;fill-opacity:1;stroke:#a8a8ff;stroke-width:0.754642;stroke-linecap:round;stroke-linejoin:round;stroke-dasharray:none;stroke-dashoffset:0;stroke-opacity:0.96;paint-order:normal"
       d="m 88.143761,114.59619 c -2.778415,-0.38631 -5.378238,-1.58541 -7.840048,-3.61603 l -0.736467,-0.60747 -0.07419,-2.88311 c -0.0408,-1.58572 -0.07419,-4.78018 -0.07419,-7.0988 v -4.215688 l 1.255829,-0.06625 1.255829,-0.06625 1.288931,1.259398 c 2.392657,2.337835 4.280854,3.31389 6.410778,3.31389 2.248073,0 3.723731,-1.18182 4.539236,-3.63537 0.451457,-1.358265 0.574039,-2.382925 0.573039,-4.790005 -0.001,-2.446098 -0.11284,-3.235984 -0.606599,-4.284877 -0.921212,-1.956927 -2.490659,-2.772673 -5.321007,-2.765685 -1.955371,0.0048 -3.534578,0.385471 -6.905386,1.664435 l -1.260217,0.478156 -0.0033,-0.855747 c -0.0018,-0.470662 -0.04997,-8.806809 -0.107008,-18.524772 -0.05704,-9.717962 -0.08023,-17.692501 -0.05154,-17.721198 0.0287,-0.0287 2.706902,-0.04153 5.951566,-0.02853 3.244665,0.01301 8.083907,-0.02935 10.75387,-0.09412 2.669964,-0.06477 4.867693,-0.104285 4.883843,-0.0878 0.0512,0.05226 0.25945,13.895149 0.20979,13.94481 -0.0261,0.02611 -2.954662,0.08775 -6.507875,0.136973 -3.553215,0.04922 -6.729037,0.120784 -7.057382,0.159026 l -0.59699,0.06953 0.0377,3.393183 c 0.02074,1.866251 0.06338,3.418809 0.09476,3.450128 0.03138,0.03132 0.962597,0.110064 2.069365,0.174987 2.179483,0.127849 2.924123,0.279501 4.151234,0.845432 1.171663,0.540357 2.001712,1.146999 3.008527,2.198783 1.539455,1.608215 2.615661,3.510523 3.523651,6.228419 1.05165,3.147928 1.43915,5.721418 1.52753,10.14485 0.0741,3.707686 -0.0444,5.786683 -0.47538,8.340633 -0.99297,5.884399 -2.711403,9.871479 -5.472668,12.697539 -1.371828,1.40402 -2.747566,2.21992 -4.528582,2.68573 -0.774276,0.20251 -2.956436,0.28931 -3.916665,0.1558 z"
       id="path90"
       transform="scale(0.26458332)" />
    <path
       style="fill:#a8a8ff;fill-opacity:1;stroke:#a8a8ff;stroke-width:0.754642;stroke-linecap:round;stroke-linejoin:round;stroke-dasharray:none;stroke-dashoffset:0;stroke-opacity:0.96;paint-order:normal"
       d="m 136.16136,113.75478 c -1.36498,-0.36765 -2.65496,-1.2464 -3.64217,-2.48112 -1.9298,-2.41364 -3.04165,-5.67319 -3.67355,-10.76964 -0.18844,-1.519791 -0.23757,-2.704725 -0.27828,-6.711452 -0.0272,-2.676192 -0.0754,-5.029395 -0.10722,-5.229341 -0.0497,-0.312861 -0.10281,-0.363537 -0.38076,-0.363537 -0.21086,0 -0.34315,0.06795 -0.38112,0.195751 -0.13318,0.448228 -6.00523,21.876899 -6.27601,22.902839 -0.16239,0.61521 -0.34617,1.28216 -0.40841,1.48211 l -0.11316,0.36354 h -3.73856 c -2.13765,0 -3.73855,-0.0431 -3.73855,-0.10056 0,-0.0553 1.55352,-5.80618 3.45227,-12.77973 4.11313,-15.10632 3.90019,-14.267324 3.67755,-14.489958 -0.26035,-0.260356 -0.53587,-0.09511 -1.08951,0.653461 -0.96609,1.306231 -2.45875,2.353894 -3.88182,2.724557 -0.82636,0.215241 -2.3802,0.213116 -3.21529,-0.0044 -4.16586,-1.08507 -6.7598,-6.407017 -7.44898,-15.282999 -0.18887,-2.43236 -0.081,-10.288476 0.16555,-12.063 0.50177,-3.610778 1.08988,-5.802559 2.04096,-7.606315 1.39218,-2.640332 2.47326,-3.904773 4.06563,-4.755202 l 0.83542,-0.446174 h 1.90357 1.90357 l 0.76022,0.37408 c 1.93074,0.950045 3.79084,3.456032 4.78702,6.449231 0.20475,0.615217 0.41327,1.148033 0.46339,1.184037 0.13611,0.09779 0.71179,2.96897 0.98777,4.926426 0.21356,1.514762 0.24779,2.345723 0.28737,6.976872 0.0247,2.891518 0.0692,5.370561 0.099,5.508985 0.0746,0.347499 0.57315,0.347499 0.72087,0 0.0588,-0.138424 1.14093,-4.05204 2.40464,-8.696925 1.26371,-4.644886 2.3988,-8.722094 2.52243,-9.060463 0.12362,-0.338369 0.6171,-2.023306 1.09663,-3.744304 l 0.87186,-3.129088 0.38338,-0.08292 c 0.21086,-0.0456 1.8557,-0.117946 3.65521,-0.16076 2.59145,-0.06166 3.27183,-0.04865 3.27183,0.06256 0,0.07722 -0.42785,1.709255 -0.95079,3.626742 -0.52293,1.917488 -0.95079,3.585755 -0.95079,3.707262 0,0.121507 -1.07936,4.172953 -2.39859,9.003213 -2.97905,10.907572 -2.925,10.692931 -2.74688,10.907547 0.25664,0.309232 0.50184,0.17287 1.10036,-0.611938 1.44516,-1.894969 3.32838,-2.911539 5.39368,-2.911539 1.75077,0 2.83926,0.380619 4.21177,1.472756 2.3318,1.85547 4.01619,6.064509 4.80464,12.006081 0.28968,2.182925 0.29197,12.014342 0.003,14.038115 -0.501,3.51212 -1.19054,6.04974 -2.20359,8.10968 -1.32293,2.69004 -2.98871,4.25823 -5.1102,4.81081 -0.79409,0.20683 -2.35782,0.20419 -3.13562,-0.005 z m 2.55005,-12.66606 c 0.72944,-0.65175 0.93932,-2.719791 0.854,-8.414727 -0.0713,-4.759388 -0.24271,-5.894393 -0.99617,-6.596353 -0.18781,-0.174971 -0.39508,-0.226959 -0.90485,-0.226959 -0.59759,0 -0.69643,0.03518 -1.02671,0.365462 -0.25798,0.257989 -0.40454,0.545818 -0.49836,0.978754 -0.44693,2.062449 -0.44609,10.320844 0.001,12.526122 0.15043,0.741541 0.49295,1.391511 0.81569,1.547891 0.13036,0.0632 0.50048,0.11824 0.8225,0.1224 0.48791,0.006 0.64334,-0.0441 0.93262,-0.30259 z M 115.10636,76.37374 c 0.18277,-0.204551 0.35982,-0.586381 0.437,-0.942449 0.3218,-1.484655 0.442,-6.799096 0.22838,-10.097583 -0.22316,-3.445736 -0.52271,-4.091691 -1.89742,-4.091691 -1.1188,0 -1.48962,0.692343 -1.67957,3.135855 -0.13843,1.780731 -0.13883,6.886821 -6.9e-4,8.77596 0.22697,3.103807 0.53994,3.683333 1.94525,3.601976 0.57121,-0.03307 0.70106,-0.08437 0.96705,-0.382068 z"
       id="path91"
       transform="scale(0.26458332)" />
  </g>
  <g
     inkscape:groupmode="layer"
     id="layer2"
     inkscape:label="Текст"
     style="display:inline;opacity:1;mix-blend-mode:normal;stroke:#2000bd;stroke-opacity:0.96142"
     transform="matrix(1.3637881,-0.01891208,0.01223944,2.1072892,-9.0766783,-21.615743)">
    <text
       xml:space="preserve"
       transform="matrix(0.66700697,0,0,0.80567281,-218.88155,-316.96991)"
       id="text55-1"
       style="font-style:normal;font-variant:normal;font-weight:normal;font-stretch:normal;font-size:12px;font-family:sans-serif;-inkscape-font-specification:'sans-serif, Normal';font-variant-ligatures:normal;font-variant-caps:normal;font-variant-numeric:normal;font-variant-east-asian:normal;text-align:start;writing-mode:lr-tb;direction:ltr;white-space:pre;shape-inside:url(#rect46-7);display:inline;fill:#290997;fill-opacity:1;stroke:#220094;stroke-width:1.27536;stroke-linecap:round;stroke-linejoin:miter;stroke-dasharray:none;stroke-dashoffset:0;stroke-opacity:0.96142;paint-order:normal"><tspan
         x="349.10742"
         y="423.47921"
         id="tspan2">100%</tspan></text>
  </g>
</svg>
