<?xml version="1.0" encoding="UTF-8" standalone="no"?>
<!-- Created with Inkscape (http://www.inkscape.org/) -->

<svg
   width="200"
   height="200"
   viewBox="0 0 52.916664 52.916666"
   version="1.1"
   id="svg1"
   xmlns="http://www.w3.org/2000/svg"
   xmlns:svg="http://www.w3.org/2000/svg">
  <defs
     id="defs1">
    <rect
       x="349.10745"
       y="412.5307"
       width="48.098755"
       height="26.062813"
       id="rect46-7" />
  </defs>
  <g
     id="layer1">
    <g
       id="g3"
       transform="matrix(1.1110146,0,0,1.0965324,-84.08098,-89.202811)">
      <path
         style="fill:#3a00af;fill-opacity:1;fill-rule:evenodd;stroke:#5b36c1;stroke-width:0.835;stroke-linecap:butt;stroke-linejoin:miter;stroke-dasharray:none;stroke-opacity:1"
         d="m 80.463316,81.733862 9.486291,46.959518"
         id="path1" />
      <path
         style="fill:#3a00af;fill-opacity:1;fill-rule:evenodd;stroke:#5b36c1;stroke-width:0.835;stroke-linecap:butt;stroke-linejoin:miter;stroke-dasharray:none;stroke-opacity:1"
         d="m 118.52473,81.776796 -9.48634,46.959524"
         id="path1-8" />
      <path
         style="fill:none;fill-rule:evenodd;stroke:#5b36bf;stroke-width:1.16461;stroke-linecap:round;stroke-linejoin:round;stroke-dasharray:none;stroke-opacity:1;paint-order:fill markers stroke"
         d="M 90.128829,128.70897 108.901,128.60394"
         id="path3" />
    </g>
    <g
       id="g51"
       transform="matrix(1.1110146,0,0,1.0965324,-84.08098,-89.202811)">
      <path
         style="fill:#3a00af;fill-opacity:1;fill-rule:evenodd;stroke:#5b36c1;stroke-width:0.835;stroke-linecap:butt;stroke-linejoin:miter;stroke-dasharray:none;stroke-opacity:1"
         d="m 80.463316,81.733862 9.486291,46.959518"
         id="path49" />
      <path
         style="fill:#3a00af;fill-opacity:1;fill-rule:evenodd;stroke:#5b36c1;stroke-width:0.835;stroke-linecap:butt;stroke-linejoin:miter;stroke-dasharray:none;stroke-opacity:1"
         d="m 118.52473,81.776796 -9.48634,46.959524"
         id="path50" />
      <path
         style="fill:none;fill-rule:evenodd;stroke:#5b36bf;stroke-width:1.16461;stroke-linecap:round;stroke-linejoin:round;stroke-dasharray:none;stroke-opacity:1;paint-order:fill markers stroke"
         d="M 90.128829,128.70897 108.901,128.60394"
         id="path51" />
    </g>
    <path
       style="fill:#abaaff;fill-opacity:0;stroke:#a8a8ff;stroke-width:0.3;stroke-linecap:round;stroke-linejoin:round;stroke-dasharray:none;stroke-opacity:1;paint-order:markers fill stroke"
       d="m 85.383313,104.30158 c 0.488306,-0.22323 0.976606,-0.44645 1.325402,-0.6069 0.348797,-0.16045 0.558053,-0.2581 0.718495,-0.34878 0.160442,-0.0907 0.27206,-0.1744 0.39762,-0.24415 0.125561,-0.0698 0.26508,-0.12556 0.3767,-0.1744 0.11162,-0.0488 0.195308,-0.0907 0.432485,-0.15346 0.237178,-0.0628 0.627824,-0.14649 0.8301,-0.19531 0.202276,-0.0488 0.216247,-0.0628 0.279036,-0.0838 0.06279,-0.0209 0.174401,-0.0488 0.265087,-0.0628 0.09069,-0.0139 0.160444,-0.0139 0.313905,-0.0349 0.153462,-0.0209 0.390645,-0.0628 0.578992,-0.0837 0.188347,-0.0209 0.327862,-0.0209 0.59294,-0.0209 0.265078,0 0.655722,0 1.081243,0 0.425522,0 0.885921,0 1.178899,0.007 0.292979,0.007 0.418546,0.0209 0.572016,0.0279 0.153469,0.007 0.334838,0.007 0.634799,0.0419 0.299961,0.0349 0.7185,0.10464 0.969629,0.13952 0.251128,0.0349 0.334835,0.0349 0.44644,0.0558 0.111604,0.0209 0.251132,0.0628 0.411575,0.0977 0.160443,0.0349 0.341815,0.0628 0.613874,0.12556 0.272058,0.0628 0.634789,0.16044 0.837083,0.20927 0.202295,0.0488 0.244155,0.0488 0.272037,0.0558 0.02788,0.007 0.04185,0.021 0.06279,0.028 0.02093,0.007 0.04884,0.007 0.0907,0.0209 0.04185,0.014 0.09766,0.0418 0.139512,0.0558 0.04185,0.0139 0.06976,0.0139 0.104639,0.0279 0.03487,0.0139 0.07673,0.0418 0.11161,0.0558 0.03488,0.014 0.06279,0.014 0.09765,0.0209 0.03487,0.007 0.07673,0.0209 0.174399,0.0558 0.09766,0.0349 0.251134,0.0907 0.355772,0.13255 0.104638,0.0418 0.160441,0.0697 0.244145,0.0907 0.0837,0.0209 0.195325,0.0349 0.292965,0.0628 0.0977,0.0279 0.18139,0.0698 0.36276,0.11162 0.18138,0.0419 0.4604,0.0837 0.62082,0.11858 0.16043,0.0349 0.20231,0.0628 0.35578,0.0977 0.15346,0.0349 0.41855,0.0767 0.59293,0.11858 0.17438,0.0418 0.25812,0.0837 0.46739,0.10464 0.20927,0.0209 0.54411,0.0209 0.78826,0.0279 0.24414,0.007 0.39762,0.0209 0.56504,0.0279 0.16742,0.007 0.34879,0.007 0.56504,0.0209 0.21624,0.0139 0.46737,0.0418 0.78825,0.0628 0.32089,0.0209 0.71153,0.0348 1.10915,0.0418 0.39762,0.007 0.80221,0.007 1.05336,-0.007 0.25115,-0.0139 0.34877,-0.0418 0.54408,-0.0907 0.19532,-0.0488 0.48831,-0.11858 0.71153,-0.16741 0.22323,-0.0488 0.3767,-0.0767 0.46738,-0.0976 0.0907,-0.0209 0.1186,-0.0349 0.15345,-0.0488 0.0349,-0.0139 0.0767,-0.0279 0.13256,-0.0419 0.0558,-0.014 0.12554,-0.0279 0.19533,-0.0559 0.0698,-0.0279 0.13949,-0.0697 0.23018,-0.0977 0.0907,-0.0279 0.2023,-0.0418 0.31391,-0.0627 0.11161,-0.0209 0.22322,-0.0488 0.36273,-0.0697 0.13951,-0.0209 0.30694,-0.0349 0.3976,-0.0488 0.0907,-0.0139 0.10466,-0.0279 0.15351,-0.0419 0.0488,-0.014 0.13257,-0.0279 0.17442,-0.0418 0.0419,-0.0139 0.0419,-0.0279 0.0558,-0.0349 0.0139,-0.007 0.0418,-0.007 0.0767,-0.021 0.0349,-0.014 0.0767,-0.0418 0.12554,-0.0628 0.0488,-0.0209 0.10466,-0.0349 0.17441,-0.0697 0.0697,-0.0349 0.15346,-0.0907 0.20926,-0.11859 0.0558,-0.0279 0.0837,-0.0279 0.16044,-0.0558 0.0767,-0.0279 0.2023,-0.0837 0.39065,-0.16045 0.18835,-0.0767 0.43947,-0.17439 0.56503,-0.23017 0.12556,-0.0558 0.12556,-0.0698 0.15345,-0.0838 0.0279,-0.014 0.0837,-0.028 0.11163,-0.0419 0.0279,-0.0139 0.0279,-0.0279 0.0488,-0.0419 0.0209,-0.0139 0.0627,-0.0279 0.0976,-0.0488 0.0349,-0.0209 0.0628,-0.0488 0.0907,-0.0628 0.0279,-0.0139 0.0558,-0.0139 0.0767,-0.0279 0.0209,-0.0139 0.0349,-0.0418 0.0768,-0.0558 0.0419,-0.014 0.1116,-0.014 0.18136,-0.014"
       id="path52"
       transform="matrix(1.2324653,0.02289741,0,1.0914824,-96.212545,-100.12563)" />
    <path
       style="fill:#a8a8ff;fill-opacity:1;stroke:#a8a8ff;stroke-width:1.06723;stroke-linecap:round;stroke-linejoin:round;stroke-opacity:1"
       d="M 61.239611,193.42741 C 61.145884,193.10518 33.931859,60.102008 33.931859,59.966168 c 0,-0.05009 0.110538,-0.09107 0.245641,-0.09107 0.456627,0 8.518719,-3.193742 10.590407,-4.195317 2.568373,-1.241702 3.460927,-1.541266 6.110924,-2.050981 1.163239,-0.223745 2.72006,-0.543724 3.4596,-0.711065 3.035517,-0.686869 5.851064,-0.82464 13.208906,-0.646342 7.926428,0.192076 9.834126,0.320986 14.278592,0.964857 5.791585,0.839027 11.261519,2.07479 16.410362,3.707415 4.319879,1.369771 5.627159,1.729364 7.802749,2.146284 0.89832,0.172152 2.07288,0.418339 2.61014,0.547083 4.19756,1.005875 5.29353,1.174036 8.74267,1.341442 3.53633,0.171637 6.65199,0.384485 9.47692,0.647423 0.87005,0.08098 3.71747,0.18978 6.32762,0.241774 l 4.74571,0.09453 2.84743,-0.554073 c 1.56609,-0.30474 3.16777,-0.602495 3.55929,-0.661677 0.78299,-0.118358 3.34172,-0.766397 3.97156,-1.005863 0.21917,-0.08333 1.35504,-0.268128 2.52416,-0.410666 2.97834,-0.36312 4.21243,-0.634561 5.80446,-1.276715 0.76081,-0.306875 2.16634,-0.813646 3.12339,-1.126156 2.23819,-0.730845 4.39089,-1.558963 5.32467,-2.048339 0.40544,-0.212478 1.0677,-0.448075 1.4717,-0.52355 l 0.73454,-0.137227 -0.0887,0.416175 c -0.0488,0.228897 -6.45204,31.511168 -14.2295,69.51616 -7.77746,38.005 -14.16586,69.12251 -14.19645,69.15003 -0.0698,0.0628 -59.724492,0.40942 -69.925611,0.40627 -7.046458,-0.002 -7.548236,-0.0205 -7.623458,-0.27916 z"
       id="path7"
       transform="scale(0.26458332)" />
  </g>
  <g
     id="layer2"
     style="display:inline;opacity:1;mix-blend-mode:normal;stroke:#2000bd;stroke-opacity:0.96142"
     transform="matrix(1.3637881,-0.01891208,0.01223944,2.1072892,-9.0766783,-21.615743)">
    <text
       xml:space="preserve"
       transform="matrix(0.66700697,0,0,0.80567281,-216.41371,-314.6136)"
       id="text55-1"
       style="font-style:normal;font-variant:normal;font-weight:normal;font-stretch:normal;font-size:12px;font-family:sans-serif;-inkscape-font-specification:'sans-serif, Normal';font-variant-ligatures:normal;font-variant-caps:normal;font-variant-numeric:normal;font-variant-east-asian:normal;text-align:start;writing-mode:lr-tb;direction:ltr;white-space:pre;shape-inside:url(#rect46-7);display:inline;fill:#290997;fill-opacity:1;stroke:#220094;stroke-width:1.27536;stroke-linecap:round;stroke-linejoin:miter;stroke-dasharray:none;stroke-dashoffset:0;stroke-opacity:0.96142;paint-order:normal"><tspan
         x="349.10742"
         y="423.47921"
         id="tspan1">75%</tspan></text>
  </g>
</svg>
