<?xml version="1.0" encoding="UTF-8" standalone="no"?>
<!-- Created with Inkscape (http://www.inkscape.org/) -->

<svg
   width="200"
   height="200"
   viewBox="0 0 52.916664 52.916666"
   version="1.1"
   id="svg1"
   inkscape:version="1.4 (86a8ad7, 2024-10-11)"
   sodipodi:docname="Стакан 50%.svg"
   inkscape:export-filename="Pictures\Glass_50.png"
   inkscape:export-xdpi="25.4"
   inkscape:export-ydpi="25.4"
   xmlns:inkscape="http://www.inkscape.org/namespaces/inkscape"
   xmlns:sodipodi="http://sodipodi.sourceforge.net/DTD/sodipodi-0.dtd"
   xmlns="http://www.w3.org/2000/svg"
   xmlns:svg="http://www.w3.org/2000/svg">
  <sodipodi:namedview
     id="namedview1"
     pagecolor="#ffffff"
     bordercolor="#000000"
     borderopacity="0"
     inkscape:showpageshadow="2"
     inkscape:pageopacity="0.0"
     inkscape:pagecheckerboard="false"
     inkscape:deskcolor="#aaaaaa"
     inkscape:document-units="px"
     inkscape:zoom="6.3214928"
     inkscape:cx="109.54691"
     inkscape:cy="90.959528"
     inkscape:window-width="3840"
     inkscape:window-height="2036"
     inkscape:window-x="4468"
     inkscape:window-y="1878"
     inkscape:window-maximized="1"
     inkscape:current-layer="layer2">
    <inkscape:page
       x="0"
       y="0"
       width="52.916664"
       height="52.916664"
       id="page2"
       margin="0"
       bleed="0" />
  </sodipodi:namedview>
  <defs
     id="defs1">
    <inkscape:path-effect
       effect="bspline"
       id="path-effect56"
       is_visible="true"
       lpeversion="1.3"
       weight="33.333333"
       steps="2"
       helper_size="0"
       apply_no_weight="true"
       apply_with_weight="true"
       only_selected="false"
       uniform="false" />
    <rect
       x="349.10745"
       y="412.5307"
       width="48.098755"
       height="26.062813"
       id="rect46-7" />
  </defs>
  <g
     inkscape:label="Слой 1"
     inkscape:groupmode="layer"
     id="layer1">
    <g
       id="g3"
       transform="matrix(1.1110146,0,0,1.0965324,-84.08098,-89.202811)">
      <path
         style="fill:#3a00af;fill-opacity:1;fill-rule:evenodd;stroke:#5b36c1;stroke-width:0.835;stroke-linecap:butt;stroke-linejoin:miter;stroke-dasharray:none;stroke-opacity:1"
         d="m 80.463316,81.733862 9.486291,46.959518"
         id="path1"
         inkscape:connector-type="polyline"
         inkscape:connector-curvature="0" />
      <path
         style="fill:#3a00af;fill-opacity:1;fill-rule:evenodd;stroke:#5b36c1;stroke-width:0.835;stroke-linecap:butt;stroke-linejoin:miter;stroke-dasharray:none;stroke-opacity:1"
         d="m 118.52473,81.776796 -9.48634,46.959524"
         id="path1-8"
         inkscape:connector-type="polyline"
         inkscape:connector-curvature="0" />
      <path
         style="fill:none;fill-rule:evenodd;stroke:#5b36bf;stroke-width:1.16461;stroke-linecap:round;stroke-linejoin:round;stroke-dasharray:none;stroke-opacity:1;paint-order:fill markers stroke"
         d="M 90.128829,128.70897 108.901,128.60394"
         id="path3"
         inkscape:connector-type="polyline"
         inkscape:connector-curvature="0" />
    </g>
    <g
       id="g51"
       transform="matrix(1.1110146,0,0,1.0965324,-84.08098,-89.202811)">
      <path
         style="fill:#3a00af;fill-opacity:1;fill-rule:evenodd;stroke:#5b36c1;stroke-width:0.835;stroke-linecap:butt;stroke-linejoin:miter;stroke-dasharray:none;stroke-opacity:1"
         d="m 80.463316,81.733862 9.486291,46.959518"
         id="path49"
         inkscape:connector-type="polyline"
         inkscape:connector-curvature="0" />
      <path
         style="fill:#3a00af;fill-opacity:1;fill-rule:evenodd;stroke:#5b36c1;stroke-width:0.835;stroke-linecap:butt;stroke-linejoin:miter;stroke-dasharray:none;stroke-opacity:1"
         d="m 118.52473,81.776796 -9.48634,46.959524"
         id="path50"
         inkscape:connector-type="polyline"
         inkscape:connector-curvature="0" />
      <path
         style="fill:none;fill-rule:evenodd;stroke:#5b36bf;stroke-width:1.16461;stroke-linecap:round;stroke-linejoin:round;stroke-dasharray:none;stroke-opacity:1;paint-order:fill markers stroke"
         d="M 90.128829,128.70897 108.901,128.60394"
         id="path51"
         inkscape:connector-type="polyline"
         inkscape:connector-curvature="0" />
    </g>
    <path
       style="fill:#abaaff;fill-opacity:0;stroke:#a8a8ff;stroke-width:0.3;stroke-linecap:round;stroke-linejoin:round;stroke-dasharray:none;stroke-opacity:1;paint-order:markers fill stroke"
       d="m 85.383313,104.30158 c 0.488306,-0.22323 0.976606,-0.44645 1.325402,-0.6069 0.348797,-0.16045 0.558053,-0.2581 0.718495,-0.34878 0.160442,-0.0907 0.27206,-0.1744 0.39762,-0.24415 0.125561,-0.0698 0.26508,-0.12556 0.3767,-0.1744 0.11162,-0.0488 0.195308,-0.0907 0.432485,-0.15346 0.237178,-0.0628 0.627824,-0.14649 0.8301,-0.19531 0.202276,-0.0488 0.216247,-0.0628 0.279036,-0.0838 0.06279,-0.0209 0.174401,-0.0488 0.265087,-0.0628 0.09069,-0.0139 0.160444,-0.0139 0.313905,-0.0349 0.153462,-0.0209 0.390645,-0.0628 0.578992,-0.0837 0.188347,-0.0209 0.327862,-0.0209 0.59294,-0.0209 0.265078,0 0.655722,0 1.081243,0 0.425522,0 0.885921,0 1.178899,0.007 0.292979,0.007 0.418546,0.0209 0.572016,0.0279 0.153469,0.007 0.334838,0.007 0.634799,0.0419 0.299961,0.0349 0.7185,0.10464 0.969629,0.13952 0.251128,0.0349 0.334835,0.0349 0.44644,0.0558 0.111604,0.0209 0.251132,0.0628 0.411575,0.0977 0.160443,0.0349 0.341815,0.0628 0.613874,0.12556 0.272058,0.0628 0.634789,0.16044 0.837083,0.20927 0.202295,0.0488 0.244155,0.0488 0.272037,0.0558 0.02788,0.007 0.04185,0.021 0.06279,0.028 0.02093,0.007 0.04884,0.007 0.0907,0.0209 0.04185,0.014 0.09766,0.0418 0.139512,0.0558 0.04185,0.0139 0.06976,0.0139 0.104639,0.0279 0.03487,0.0139 0.07673,0.0418 0.11161,0.0558 0.03488,0.014 0.06279,0.014 0.09765,0.0209 0.03487,0.007 0.07673,0.0209 0.174399,0.0558 0.09766,0.0349 0.251134,0.0907 0.355772,0.13255 0.104638,0.0418 0.160441,0.0697 0.244145,0.0907 0.0837,0.0209 0.195325,0.0349 0.292965,0.0628 0.0977,0.0279 0.18139,0.0698 0.36276,0.11162 0.18138,0.0419 0.4604,0.0837 0.62082,0.11858 0.16043,0.0349 0.20231,0.0628 0.35578,0.0977 0.15346,0.0349 0.41855,0.0767 0.59293,0.11858 0.17438,0.0418 0.25812,0.0837 0.46739,0.10464 0.20927,0.0209 0.54411,0.0209 0.78826,0.0279 0.24414,0.007 0.39762,0.0209 0.56504,0.0279 0.16742,0.007 0.34879,0.007 0.56504,0.0209 0.21624,0.0139 0.46737,0.0418 0.78825,0.0628 0.32089,0.0209 0.71153,0.0348 1.10915,0.0418 0.39762,0.007 0.80221,0.007 1.05336,-0.007 0.25115,-0.0139 0.34877,-0.0418 0.54408,-0.0907 0.19532,-0.0488 0.48831,-0.11858 0.71153,-0.16741 0.22323,-0.0488 0.3767,-0.0767 0.46738,-0.0976 0.0907,-0.0209 0.1186,-0.0349 0.15345,-0.0488 0.0349,-0.0139 0.0767,-0.0279 0.13256,-0.0419 0.0558,-0.014 0.12554,-0.0279 0.19533,-0.0559 0.0698,-0.0279 0.13949,-0.0697 0.23018,-0.0977 0.0907,-0.0279 0.2023,-0.0418 0.31391,-0.0627 0.11161,-0.0209 0.22322,-0.0488 0.36273,-0.0697 0.13951,-0.0209 0.30694,-0.0349 0.3976,-0.0488 0.0907,-0.0139 0.10466,-0.0279 0.15351,-0.0419 0.0488,-0.014 0.13257,-0.0279 0.17442,-0.0418 0.0419,-0.0139 0.0419,-0.0279 0.0558,-0.0349 0.0139,-0.007 0.0418,-0.007 0.0767,-0.021 0.0349,-0.014 0.0767,-0.0418 0.12554,-0.0628 0.0488,-0.0209 0.10466,-0.0349 0.17441,-0.0697 0.0697,-0.0349 0.15346,-0.0907 0.20926,-0.11859 0.0558,-0.0279 0.0837,-0.0279 0.16044,-0.0558 0.0767,-0.0279 0.2023,-0.0837 0.39065,-0.16045 0.18835,-0.0767 0.43947,-0.17439 0.56503,-0.23017 0.12556,-0.0558 0.12556,-0.0698 0.15345,-0.0838 0.0279,-0.014 0.0837,-0.028 0.11163,-0.0419 0.0279,-0.0139 0.0279,-0.0279 0.0488,-0.0419 0.0209,-0.0139 0.0627,-0.0279 0.0976,-0.0488 0.0349,-0.0209 0.0628,-0.0488 0.0907,-0.0628 0.0279,-0.0139 0.0558,-0.0139 0.0767,-0.0279 0.0209,-0.0139 0.0349,-0.0418 0.0768,-0.0558 0.0419,-0.014 0.1116,-0.014 0.18136,-0.014"
       id="path52"
       transform="matrix(1.0645491,0.02310354,0,1.1013082,-79.42344,-89.30146)"
       inkscape:original-d="m 85.383313,104.30158 c 0.488305,-0.22323 0.976607,-0.44645 1.464911,-0.66968 0.209272,-0.0977 0.418544,-0.19532 0.627819,-0.29298 0.111612,-0.0837 0.223224,-0.16742 0.334836,-0.25112 0.139514,-0.0558 0.279029,-0.11162 0.418544,-0.16742 0.08371,-0.0419 0.16742,-0.0837 0.251129,-0.12557 0.390642,-0.0837 0.781286,-0.16742 1.171927,-0.25112 0.01394,-0.0139 0.0279,-0.0279 0.04185,-0.0419 0.111611,-0.0279 0.223223,-0.0558 0.334835,-0.0837 0.06976,0 0.139518,0 0.209275,0 0.237175,-0.0418 0.47435,-0.0837 0.711528,-0.12556 0.139515,0 0.27903,0 0.418544,0 0.390642,0 0.781286,0 1.171927,0 0.460402,0 0.920801,0 1.381202,0 0.125563,0.0139 0.251127,0.0279 0.37669,0.0419 0.181372,0 0.362741,0 0.54411,0 0.418547,0.0698 0.837092,0.13952 1.255639,0.20928 0.08371,0 0.167417,0 0.251126,0 0.139515,0.0418 0.27903,0.0837 0.418545,0.12556 0.181369,0.0279 0.362741,0.0558 0.54411,0.0837 0.362738,0.0977 0.725479,0.19532 1.088218,0.29298 0.04185,0 0.08371,0 0.125563,0 0.01394,0.0139 0.0279,0.0279 0.04185,0.0419 0.0279,0 0.05581,0 0.08371,0 0.05581,0.0279 0.111614,0.0558 0.16742,0.0837 0.0279,0 0.05581,0 0.08371,0 0.04185,0.0279 0.08371,0.0558 0.125563,0.0837 0.0279,0 0.05581,0 0.08371,0 0.04185,0.0139 0.08371,0.0279 0.125563,0.0419 0.153467,0.0558 0.306936,0.11161 0.460402,0.16742 0.05581,0.0279 0.111612,0.0558 0.167418,0.0837 0.111611,0.0139 0.223223,0.0279 0.334833,0.0419 0.0837,0.0418 0.16742,0.0837 0.25113,0.12556 0.27903,0.0419 0.55806,0.0837 0.83709,0.12557 0.0418,0.0279 0.0837,0.0558 0.12556,0.0837 0.26508,0.0418 0.53016,0.0837 0.79524,0.12556 0.0837,0.0418 0.16742,0.0837 0.25113,0.12556 0.33483,0 0.66967,0 1.00451,0 0.15346,0.0139 0.30693,0.0279 0.4604,0.0419 0.18137,0 0.36274,0 0.5441,0 0.25113,0.0279 0.50226,0.0558 0.75339,0.0837 0.39064,0.0139 0.78128,0.0279 1.17192,0.0418 0.4046,0 0.80919,0 1.21379,0 0.0977,-0.0279 0.19532,-0.0558 0.29298,-0.0837 0.29298,-0.0697 0.58596,-0.13951 0.87895,-0.20927 0.15346,-0.0279 0.30693,-0.0558 0.4604,-0.0837 0.0279,-0.0139 0.0558,-0.0279 0.0837,-0.0418 0.0418,-0.014 0.0837,-0.0279 0.12556,-0.0419 0.0698,-0.0139 0.13951,-0.0279 0.20927,-0.0419 0.0698,-0.0419 0.13952,-0.0837 0.20927,-0.12557 0.11162,-0.0139 0.22323,-0.0279 0.33484,-0.0418 0.11161,-0.0279 0.22322,-0.0558 0.33484,-0.0837 0.16741,-0.0139 0.33483,-0.0279 0.50225,-0.0419 0.0139,-0.0139 0.0279,-0.0279 0.0419,-0.0419 0.0837,-0.0139 0.16741,-0.0279 0.25112,-0.0418 0,-0.0139 0,-0.0279 0,-0.0419 0.0279,0 0.0558,0 0.0837,0 0.0419,-0.0279 0.0837,-0.0558 0.12557,-0.0837 0.0558,-0.0139 0.11161,-0.0279 0.16742,-0.0418 0.0837,-0.0558 0.16741,-0.11161 0.25112,-0.16742 0.0279,0 0.0558,0 0.0837,0 0.12557,-0.0558 0.25113,-0.11161 0.37669,-0.16742 0.25113,-0.0977 0.50226,-0.19532 0.75338,-0.29298 0,-0.0139 0,-0.0279 0,-0.0419 0.0558,-0.0139 0.11162,-0.0279 0.16742,-0.0419 0,-0.0139 0,-0.0279 0,-0.0418 0.0419,-0.0139 0.0837,-0.0279 0.12557,-0.0419 0.0279,-0.0279 0.0558,-0.0558 0.0837,-0.0837 0.0279,0 0.0558,0 0.0837,0 0.0139,-0.0279 0.0279,-0.0558 0.0419,-0.0837 0.0698,0 0.13951,0 0.20927,0"
       inkscape:path-effect="#path-effect56" />
    <path
       style="fill:#a8a8ff;fill-opacity:1;stroke:#a8a8ff;stroke-width:1.06723;stroke-linecap:round;stroke-linejoin:round;stroke-opacity:1"
       d="m 113.97624,112.81277 c 0,-0.0309 0.35593,-1.40082 0.79096,-3.04432 0.43502,-1.6435 0.79095,-3.19348 0.79095,-3.4444 v -0.45622 l 1.77964,0.10465 c 0.97881,0.0576 2.61493,0.18346 3.63584,0.27978 1.82501,0.17219 1.85465,0.18127 1.76449,0.54051 -0.0504,0.20096 -0.43158,1.59691 -0.84698,3.10211 l -0.75527,2.73674 -1.48379,0.10094 c -1.64068,0.11161 -5.67584,0.16863 -5.67584,0.0802 z"
       id="path6"
       transform="scale(0.26458332)" />
    <path
       style="fill:#a8a8ff;fill-opacity:1;stroke:#a8a8ff;stroke-width:1.06723;stroke-linecap:round;stroke-linejoin:round;stroke-opacity:1"
       d="m 54.533009,113.46212 c 0.03863,-0.10875 1.018117,-3.58222 2.176637,-7.71881 l 2.1064,-7.521077 1.676407,-0.417617 c 1.669144,-0.415807 5.968548,-0.993549 6.614505,-0.888838 l 0.339225,0.05499 -0.357925,1.028238 c -0.196859,0.565531 -1.127212,3.804484 -2.067451,7.197664 -0.940239,3.39319 -1.842133,6.64028 -2.00421,7.21576 l -0.294685,1.04632 -0.733629,0.10056 c -0.403495,0.0553 -2.261802,0.10055 -4.129569,0.10055 -2.648752,0 -3.380488,-0.0435 -3.325705,-0.19774 z"
       id="path5"
       transform="scale(0.26458332)" />
    <path
       style="fill:#a8a8ff;fill-opacity:1;stroke:#a8a8ff;stroke-width:1.06723;stroke-linecap:round;stroke-linejoin:round;stroke-opacity:1"
       d="m 137.03733,113.49687 c -1.08053,-0.18204 -2.3661,-0.81778 -3.19069,-1.57787 -0.83631,-0.77088 -2.10423,-2.68358 -2.67602,-4.03686 l -0.39945,-0.94537 1.29171,-0.0985 c 1.97667,-0.15077 8.61345,-1.61221 9.5967,-2.11324 0.34977,-0.17823 2.27969,-0.55308 4.00222,-0.77736 0.54878,-0.0715 0.59218,-0.0501 0.49835,0.24554 -0.0565,0.1781 -0.22823,0.76148 -0.38157,1.29641 -1.33044,4.6414 -3.68374,7.44297 -6.71865,7.99846 -1.02851,0.18825 -0.9593,0.18795 -2.0226,0.009 z"
       id="path7"
       transform="scale(0.26458332)" />
    <path
       style="fill:#a8a8ff;fill-opacity:1;stroke:#a8a8ff;stroke-width:1.06723;stroke-linecap:round;stroke-linejoin:round;stroke-opacity:1"
       d="m 87.498925,114.04146 c -2.33747,-0.51822 -4.35336,-1.49654 -6.345111,-3.07931 l -1.188524,-0.94448 v -6.34056 -6.340556 l 0.8305,0.105824 c 6.698575,0.853542 14.222468,2.758122 19.60045,4.961602 l 1.05262,0.43128 -0.67231,1.81347 c -0.778185,2.09905 -1.276539,3.12476 -2.258027,4.64744 -1.38582,2.14997 -3.350087,3.81863 -5.361853,4.55494 -1.220939,0.44686 -4.068586,0.54267 -5.657745,0.19035 z"
       id="path4"
       transform="scale(0.26458332)" />
    <path
       style="fill:#a8a8ff;fill-opacity:1;stroke:#a8a8ff;stroke-width:1.06723;stroke-linecap:round;stroke-linejoin:round;stroke-opacity:1"
       d="m 61.219312,193.34832 c -0.09546,-0.39729 -18.112405,-88.43409 -18.112405,-88.50328 0,-0.0241 0.09165,-0.0438 0.203675,-0.0438 0.374634,0 8.085271,-3.58714 9.312537,-4.33238 0.666166,-0.40452 1.70653,-0.93974 2.311921,-1.189383 1.154079,-0.475904 3.199963,-1.006357 3.199963,-0.829681 0,0.05668 -0.9966,3.591094 -2.214667,7.854254 -1.218067,4.26315 -2.214667,7.81553 -2.214667,7.89416 0,0.13248 9.281737,0.0405 9.415541,-0.0933 0.03147,-0.0315 1.124263,-3.88864 2.428432,-8.57149 1.304172,-4.68286 2.393956,-8.530912 2.421743,-8.551231 0.100437,-0.07344 9.720926,0.204786 10.530643,0.304548 l 0.8305,0.102322 v 6.453151 6.45314 l 1.146881,0.93773 c 2.137205,1.74744 3.934295,2.67361 6.426998,3.31226 1.773856,0.45448 4.174792,0.5138 5.641338,0.13939 3.87582,-0.9895 6.920573,-4.39907 8.844775,-9.90453 l 0.64317,-1.84024 1.18502,0.37728 c 1.10909,0.35311 7.53629,1.99908 8.93634,2.28854 0.34802,0.072 1.07185,0.13393 1.60852,0.13772 0.53666,0.004 1.07665,0.0456 1.19998,0.0929 0.18104,0.0695 0.0312,0.79301 -0.77802,3.75657 -0.55123,2.01879 -1.00224,3.73421 -1.00224,3.81205 0,0.13218 8.22829,-0.014 8.3649,-0.14866 0.0329,-0.0324 0.46859,-1.53882 0.96811,-3.34748 l 0.90821,-3.28847 2.2748,0.0596 c 1.25113,0.0328 2.76614,0.10396 3.36668,0.15819 1.08647,0.0981 1.09288,0.10147 1.29267,0.67992 0.64557,1.86903 2.19281,4.24491 3.37329,5.17987 1.49247,1.18205 3.50892,1.72225 5.35373,1.43424 3.64145,-0.56851 6.1864,-3.81799 7.63506,-9.7487 0.13887,-0.56854 0.22849,-0.66783 0.67915,-0.75237 0.28554,-0.0536 1.05014,-0.35462 1.69911,-0.669 0.64898,-0.31438 2.24775,-0.99448 3.55282,-1.51133 1.30507,-0.51685 2.95946,-1.25579 3.67642,-1.642096 1.08811,-0.586282 1.79398,-0.849473 1.7777,-0.662828 -0.0243,0.278273 -19.27882,94.117994 -19.31908,94.154224 -0.07,0.063 -59.709091,0.40961 -69.933438,0.40646 l -7.550582,-0.002 z"
       id="path2"
       transform="scale(0.26458332)" />
  </g>
  <g
     inkscape:groupmode="layer"
     id="layer2"
     inkscape:label="Текст"
     style="display:inline;opacity:1;mix-blend-mode:normal;stroke:#2000bd;stroke-opacity:0.96142"
     transform="matrix(1.3637881,-0.01891208,0.01223944,2.1072892,-9.0766783,-21.615743)">
    <text
       xml:space="preserve"
       transform="matrix(0.66700697,0,0,0.80567281,-216.39276,-316.94757)"
       id="text55-1"
       style="font-style:normal;font-variant:normal;font-weight:normal;font-stretch:normal;font-size:12px;font-family:sans-serif;-inkscape-font-specification:'sans-serif, Normal';font-variant-ligatures:normal;font-variant-caps:normal;font-variant-numeric:normal;font-variant-east-asian:normal;text-align:start;writing-mode:lr-tb;direction:ltr;white-space:pre;shape-inside:url(#rect46-7);display:inline;fill:#290997;fill-opacity:1;stroke:#220094;stroke-width:1.27536;stroke-linecap:round;stroke-linejoin:miter;stroke-dasharray:none;stroke-dashoffset:0;stroke-opacity:0.96142;paint-order:normal"><tspan
         x="349.10742"
         y="423.47921"
         id="tspan1">50%</tspan></text>
  </g>
</svg>
