<svg width="163.26093" height="197.43835" viewBox="0 0 43.196118 52.238897" version="1.1" id="svg1" xmlns="http://www.w3.org/2000/svg" xmlns:svg="http://www.w3.org/2000/svg">
  <path style="fill:#3a00af;fill-opacity:1;fill-rule:evenodd;stroke:#5b36c1;stroke-width:0.921631;stroke-linecap:butt;stroke-linejoin:miter;stroke-dasharray:none;stroke-opacity:1" d="M 0.45466447,0.0906495 10.994072,51.583282" id="path49" />
  <path style="fill:#3a00af;fill-opacity:1;fill-rule:evenodd;stroke:#5b36c1;stroke-width:0.921631;stroke-linecap:butt;stroke-linejoin:miter;stroke-dasharray:none;stroke-opacity:1" d="M 42.741451,0.13772802 32.201989,51.630368" id="path50" />
  <path style="fill:none;fill-rule:evenodd;stroke:#5b36bf;stroke-width:1.28544;stroke-linecap:round;stroke-linejoin:round;stroke-dasharray:none;stroke-opacity:1;paint-order:fill markers stroke" d="M 11.19319,51.600377 32.049347,51.485209" id="path51" />
  <path style="fill:#a8a8ff;fill-opacity:0.847059;stroke:#a8a8ff;stroke-width:0.399256;stroke-linecap:round;stroke-linejoin:round;stroke-dasharray:none;stroke-opacity:0.85" d="M 11.38214,50.949927 C 11.379063,50.938577 9.1604497,40.115042 6.4518883,26.897626 L 1.5272308,2.8659614 1.7961686,2.7963987 C 2.1881678,2.6950056 4.5257257,1.8726455 5.114458,1.6290141 5.7105695,1.3823291 6.0298965,1.3012366 7.214749,1.0956486 8.5299196,0.86744872 9.071446,0.82593769 10.736631,0.8256767 c 2.909579,-4.5508e-4 4.916712,0.14564325 6.984572,0.508407 1.245884,0.2185648 2.664733,0.5299957 3.344308,0.7340606 0.682012,0.2047969 1.759692,0.4478736 2.98916,0.6742225 0.472051,0.086906 1.044726,0.1963865 1.272614,0.24329 0.227886,0.046903 1.226738,0.1268066 2.219672,0.1775626 0.992933,0.050756 2.17824,0.1165331 2.634014,0.1461709 1.577951,0.1026099 2.782723,0.074852 3.806746,-0.087708 1.17557,-0.1866173 1.881975,-0.3202202 2.068919,-0.3912968 0.08055,-0.030623 0.589405,-0.1075672 1.1308,-0.1709873 0.703612,-0.082423 1.141371,-0.1675936 1.534877,-0.2986291 0.302784,-0.1008255 0.890829,-0.2853714 1.306767,-0.4101018 0.415935,-0.1247304 0.962639,-0.3094254 1.214895,-0.4104333 0.566322,-0.2267668 0.761243,-0.2404935 0.716682,-0.050471 -0.01717,0.073249 -2.295146,11.198329 -5.062153,24.722401 -2.76701,13.52407 -5.037508,24.595297 -5.045551,24.602727 -0.008,0.0074 -4.316355,0.02998 -9.574019,0.05012 -5.257668,0.02013 -9.859051,0.05212 -10.225297,0.07108 -0.366246,0.01897 -0.668419,0.02519 -0.671497,0.01384 z" id="path1" />
  <path style="fill:#290997;fill-opacity:1;fill-rule:evenodd;stroke:#b5b5ff;stroke-width:0;stroke-linecap:round;stroke-linejoin:round;stroke-dasharray:none" d="M 6.5627204,30.282655 C 6.434433,30.034576 6.3794573,29.116329 6.4596644,28.561334 c 0.068498,-0.473975 0.012925,-0.448091 1.0319811,-0.480637 0.4834482,-0.01545 0.88173,-0.03194 0.8850706,-0.03667 0.010356,-0.01468 -0.061827,-9.648845 -0.072731,-9.707161 -0.00569,-0.03042 -0.3528877,0.264022 -0.7769253,0.658864 -0.8344334,0.776981 -0.9383159,0.854008 -1.0457833,0.775426 -0.1005473,-0.07352 -0.1544863,-0.556778 -0.1381885,-1.238071 0.012425,-0.519381 0.024178,-0.602314 0.1046845,-0.73866 0.049879,-0.08447 0.5477306,-0.652091 1.1063372,-1.26137 0.8199371,-0.894317 1.0440384,-1.116287 1.1629792,-1.151923 0.086582,-0.02594 0.3661256,-0.03824 0.6779656,-0.02982 0.4656376,0.01257 0.5404887,0.02421 0.6110795,0.09502 0.07915,0.0794 0.08111,0.168732 0.121823,5.568248 0.02276,3.018152 0.04152,5.839576 0.04169,6.269833 l 3.18e-4,0.78228 0.757572,-0.02884 c 0.855698,-0.03257 0.846469,-0.03534 0.933058,0.280008 0.0696,0.25346 0.09933,1.132925 0.05,1.478833 -0.05307,0.372142 -0.112678,0.514858 -0.224353,0.537147 -0.04613,0.0092 -1.204158,0.02782 -2.5734,0.04136 l -2.48953,0.02463 z" id="path2" />
  <path style="fill:#290997;fill-opacity:1;fill-rule:evenodd;stroke:#b5b5ff;stroke-width:0;stroke-linecap:round;stroke-linejoin:round;stroke-dasharray:none" d="m 15.622023,30.498753 c -1.393865,-0.264954 -2.203339,-1.750859 -2.484972,-4.561516 -0.17909,-1.787289 -0.187595,-4.356488 -0.01977,-5.971745 0.292658,-2.816705 1.148713,-4.442873 2.525875,-4.798168 0.322185,-0.08312 0.957232,-0.08314 1.27954,-4e-5 0.855999,0.220702 1.502986,0.949801 1.894741,2.135211 0.392078,1.186389 0.547303,2.539686 0.581142,5.066549 0.02342,1.749133 -0.01329,2.646552 -0.153408,3.749766 -0.26914,2.119073 -0.907956,3.515684 -1.872805,4.094426 -0.486123,0.291587 -1.149309,0.399767 -1.750346,0.285517 z m 0.856791,-2.365751 c 0.368223,-0.102242 0.673473,-0.551079 0.85008,-1.249947 0.215342,-0.852153 0.245249,-1.312541 0.244917,-3.770292 -3.18e-4,-2.270555 -0.02073,-2.731588 -0.165309,-3.73234 -0.175983,-1.218109 -0.473699,-1.781166 -1.004613,-1.899979 -0.45339,-0.101465 -0.859271,0.125973 -1.099884,0.616326 -0.350257,0.713797 -0.493293,1.981334 -0.49365,4.374571 -3.71e-4,2.559313 0.15171,4.167745 0.469111,4.961024 0.231664,0.578995 0.684571,0.843576 1.199348,0.700637 z" id="path3" />
  <path style="fill:#290997;fill-opacity:1;fill-rule:evenodd;stroke:#b5b5ff;stroke-width:0;stroke-linecap:round;stroke-linejoin:round;stroke-dasharray:none" d="m 23.072631,30.433883 c -0.540798,-0.0621 -0.951945,-0.26171 -1.329595,-0.645504 -0.564505,-0.573696 -0.942149,-1.456293 -1.181669,-2.761703 -0.364323,-1.985596 -0.403453,-5.789017 -0.0816,-7.931855 0.276555,-1.841275 0.865208,-3.112317 1.707262,-3.686392 0.625433,-0.426391 1.468575,-0.527131 2.216021,-0.264774 0.715107,0.251006 1.309878,0.979312 1.659228,2.031752 0.450906,1.358379 0.585661,2.630047 0.588542,5.554034 0.0021,2.161381 -0.03542,2.779248 -0.239633,3.943461 -0.469257,2.675221 -1.609336,3.959556 -3.338552,3.760981 z m 0.763656,-2.422695 c 0.166849,-0.06151 0.404019,-0.317534 0.528381,-0.570373 0.23708,-0.482007 0.368329,-1.141875 0.455152,-2.288324 0.0561,-0.740744 0.02728,-4.309935 -0.04008,-4.965076 -0.117817,-1.145754 -0.276278,-1.901576 -0.475359,-2.267353 -0.427918,-0.786227 -1.338074,-0.732195 -1.74685,0.103702 -0.340556,0.696401 -0.484018,1.984055 -0.484286,4.346703 -5.29e-4,3.585008 0.279051,5.244688 0.941618,5.592305 0.23676,0.124217 0.563578,0.143481 0.821428,0.04842 z" id="path4" />
  <path style="fill:#290997;fill-opacity:1;fill-rule:evenodd;stroke:#b5b5ff;stroke-width:0;stroke-linecap:round;stroke-linejoin:round;stroke-dasharray:none" d="m 28.949611,22.738859 c -0.750157,-0.267272 -1.195856,-1.039698 -1.366602,-2.368418 -0.220916,-1.719123 -0.02755,-3.544207 0.467106,-4.408776 0.478531,-0.836383 1.346541,-1.171075 2.205921,-0.850571 0.324874,0.121161 0.712975,0.514806 0.907349,0.92031 0.30109,0.62814 0.428704,1.344388 0.4601,2.582376 0.05583,2.201225 -0.404151,3.577631 -1.351452,4.043986 -0.242729,0.119495 -0.305946,0.132533 -0.692346,0.14279 -0.329687,0.0088 -0.471255,-0.0051 -0.630076,-0.0617 z m 0.956019,-1.607431 c 0.130291,-0.117833 0.224647,-0.333209 0.294828,-0.672975 0.08984,-0.43495 0.12411,-1.619874 0.06735,-2.328527 -0.09225,-1.151651 -0.268481,-1.536991 -0.705948,-1.543605 -0.315966,-0.0048 -0.482867,0.190813 -0.618937,0.725323 -0.100121,0.393286 -0.100545,2.620718 -5.3e-4,3.087384 0.137833,0.64351 0.315733,0.857368 0.686647,0.825433 0.112411,-0.0097 0.227148,-0.04826 0.276654,-0.09303 z" id="path5" />
  <path style="fill:#290997;fill-opacity:1;fill-rule:evenodd;stroke:#b5b5ff;stroke-width:0;stroke-linecap:round;stroke-linejoin:round;stroke-dasharray:none" d="m 28.629912,30.490331 c -0.04438,-0.01199 -0.123277,-0.06086 -0.175318,-0.108577 -0.07713,-0.07072 -0.09126,-0.116599 -0.07644,-0.248158 0.01696,-0.15054 6.236435,-14.595669 6.479368,-15.04874 0.1602,-0.298778 0.301355,-0.364815 0.779788,-0.364815 0.360346,0 0.398287,0.0077 0.498115,0.100874 0.09123,0.08517 0.105235,0.126306 0.08992,0.264226 -0.01847,0.166489 -6.337929,14.833804 -6.513589,15.117919 -0.132202,0.213826 -0.295632,0.285716 -0.678349,0.298397 -0.177538,0.0059 -0.359111,7.94e-4 -0.403498,-0.01114 z" id="path6" />
  <path style="fill:#290997;fill-opacity:1;fill-rule:evenodd;stroke:#b5b5ff;stroke-width:0;stroke-linecap:round;stroke-linejoin:round;stroke-dasharray:none" d="m 34.570768,30.192752 c -0.230605,-0.05764 -0.436575,-0.174951 -0.657161,-0.374272 -0.652907,-0.589962 -0.944145,-1.824056 -0.894964,-3.792351 0.02931,-1.173147 0.159742,-1.862616 0.476774,-2.520255 0.312229,-0.647679 0.839179,-1.040328 1.459074,-1.08721 0.931714,-0.07047 1.617281,0.492078 1.927714,1.581791 0.33138,1.163247 0.356053,3.066938 0.05622,4.337584 -0.203562,0.862647 -0.610065,1.464053 -1.178859,1.744067 -0.234389,0.11539 -0.307004,0.130939 -0.650353,0.139261 -0.212577,0.0052 -0.454875,-0.0077 -0.538441,-0.02862 z m 0.754563,-1.593903 c 0.07185,-0.03409 0.16945,-0.131064 0.216903,-0.215492 0.170841,-0.303972 0.215661,-0.613683 0.23823,-1.646241 0.03862,-1.76689 -0.117673,-2.536007 -0.551899,-2.71587 -0.173451,-0.07185 -0.3693,-0.02181 -0.512562,0.13094 -0.28376,0.302561 -0.357195,0.744337 -0.35374,2.128022 0.0028,1.132879 0.05809,1.645613 0.214943,1.994206 0.15399,0.342244 0.444817,0.468366 0.748125,0.324435 z" id="path7" />
</svg>